<?xml version="1.0" encoding="utf-8"?>
<!-- Generator: Adobe Illustrator 21.0.0, SVG Export Plug-In . SVG Version: 6.00 Build 0)  -->
<svg version="1.1" id="fde80275-8830-4350-a5c1-e8d2edf93329"
	 xmlns="http://www.w3.org/2000/svg" xmlns:xlink="http://www.w3.org/1999/xlink" x="0px" y="0px" viewBox="0 0 859.4 719"
	 style="enable-background:new 0 0 859.4 719;" xml:space="preserve">
<style type="text/css">
	.st0{opacity:0.5;fill:#4D8AF0;enable-background:new    ;}
	.st1{opacity:0.5;fill:#47E6B1;enable-background:new    ;}
	.st2{opacity:0.5;}
	.st3{fill:#47E6B1;}
	.st4{fill:#F5B1A4;}
	.st5{fill:#ACF3D7;}
</style>
<title>Background</title>
<path class="st0" d="M165.3,48c-1.7-0.8-2.5-2.7-2-4.4c0-0.1,0.1-0.3,0.1-0.4l0,0c0.1-1-0.7-1.9-1.7-2c-0.6,0-1.2,0.2-1.6,0.7l0,0
	c-0.1,0.1-0.1,0.2-0.2,0.4c-0.7,1.7-2.7,2.6-4.4,2.1c-0.1,0-0.3-0.1-0.4-0.1l0,0c-1-0.1-1.9,0.6-2,1.7c-0.1,0.6,0.2,1.2,0.7,1.6l0,0
	c0.1,0.1,0.2,0.1,0.4,0.2c1.7,0.7,2.6,2.7,2,4.4c0,0.1-0.1,0.3-0.1,0.4l0,0c-0.1,1,0.7,1.9,1.7,2c0.6,0,1.2-0.2,1.6-0.7l0,0
	c0.1-0.1,0.1-0.2,0.2-0.4c0.7-1.7,2.7-2.6,4.4-2.1c0.1,0,0.3,0.1,0.4,0.1l0,0c1,0.1,1.9-0.7,2-1.7c0-0.6-0.2-1.2-0.7-1.6l0,0
	C165.5,48.1,165.4,48,165.3,48z"/>
<path class="st0" d="M19.3,373c-1.7-0.7-2.6-2.7-2.1-4.4c0-0.1,0.1-0.3,0.1-0.4l0,0c0.1-1-0.7-1.9-1.7-2c-0.6,0-1.2,0.2-1.6,0.7l0,0
	c-0.1,0.1-0.1,0.2-0.2,0.4c-0.7,1.7-2.7,2.6-4.4,2c-0.1,0-0.3-0.1-0.4-0.1l0,0c-1-0.1-1.9,0.7-2,1.7c0,0.6,0.2,1.2,0.7,1.6l0,0
	c0.1,0.1,0.2,0.1,0.4,0.2c1.7,0.8,2.5,2.7,2,4.4c0,0.1-0.1,0.3-0.1,0.4l0,0c-0.1,1,0.7,1.9,1.7,2c0.6,0,1.2-0.2,1.6-0.7l0,0
	c0.1-0.1,0.1-0.2,0.2-0.4c0.7-1.7,2.7-2.6,4.4-2c0.1,0,0.3,0.1,0.4,0.1l0,0c1,0.1,1.9-0.7,2-1.7c0-0.6-0.2-1.2-0.7-1.6l0,0
	C19.5,373.1,19.4,373,19.3,373z"/>
<path class="st0" d="M704.3,77c-1.7-0.7-2.6-2.7-2-4.4c0-0.1,0.1-0.3,0.1-0.4l0,0c0.1-1-0.7-1.9-1.7-2c-0.6,0-1.2,0.2-1.6,0.7l0,0
	c-0.1,0.1-0.1,0.2-0.2,0.4c-0.7,1.7-2.7,2.6-4.4,2.1c-0.1,0-0.3-0.1-0.4-0.1l0,0c-1-0.1-1.9,0.7-2,1.7c0,0.6,0.2,1.2,0.7,1.6l0,0
	c0.1,0.1,0.2,0.1,0.4,0.2c1.7,0.7,2.6,2.7,2,4.4c0,0.1-0.1,0.3-0.1,0.4l0,0c-0.1,1,0.7,1.9,1.7,2c0.6,0,1.2-0.2,1.6-0.7l0,0
	c0.1-0.1,0.1-0.2,0.2-0.4c0.7-1.7,2.7-2.6,4.4-2.1c0.1,0,0.3,0.1,0.4,0.1l0,0c1,0.1,1.9-0.7,2-1.7c0-0.6-0.2-1.2-0.7-1.6l0,0
	C704.5,77.1,704.4,77,704.3,77z"/>
<path class="st0" d="M804.3,705c-1.7-0.7-2.6-2.7-2-4.4c0-0.1,0.1-0.3,0.1-0.4l0,0c0.1-1-0.7-1.9-1.7-2c-0.6,0-1.2,0.2-1.6,0.7l0,0
	c-0.1,0.1-0.1,0.2-0.2,0.4c-0.8,1.7-2.7,2.5-4.4,2c-0.1,0-0.3-0.1-0.4-0.1l0,0c-1-0.1-1.9,0.6-2,1.6c-0.1,0.7,0.2,1.3,0.8,1.7l0,0
	c0.1,0.1,0.2,0.1,0.4,0.2c1.7,0.7,2.6,2.7,2,4.4c0,0.1-0.1,0.3-0.1,0.4l0,0c-0.1,1,0.7,1.9,1.7,2c0.6,0,1.2-0.2,1.6-0.7l0,0
	c0.1-0.1,0.1-0.2,0.2-0.4c0.7-1.7,2.7-2.6,4.4-2c0.1,0,0.3,0.1,0.4,0.1l0,0c1,0.1,1.9-0.7,2-1.7c0-0.6-0.2-1.2-0.7-1.6l0,0
	C804.5,705.1,804.4,705,804.3,705z"/>
<path class="st0" d="M12.3,183c-1.7-0.7-2.6-2.7-2.1-4.4c0-0.1,0.1-0.3,0.1-0.4l0,0c0.1-1-0.7-1.9-1.7-2c-0.6,0-1.2,0.2-1.6,0.7l0,0
	c-0.1,0.1-0.1,0.2-0.2,0.4c-0.7,1.7-2.7,2.6-4.4,2c-0.1,0-0.3-0.1-0.4-0.1l0,0c-1-0.1-1.9,0.7-2,1.7c0,0.6,0.2,1.2,0.7,1.6l0,0
	c0.1,0.1,0.2,0.1,0.4,0.2c1.7,0.8,2.5,2.7,2,4.4c0,0.1-0.1,0.3-0.1,0.4l0,0c-0.1,1,0.7,1.9,1.7,2c0.6,0,1.2-0.2,1.6-0.7l0,0
	c0.1-0.1,0.1-0.2,0.2-0.4c0.7-1.7,2.7-2.6,4.4-2c0.1,0,0.3,0.1,0.4,0.1l0,0c1,0.1,1.9-0.7,2-1.7c0-0.6-0.2-1.2-0.7-1.6l0,0
	C12.5,183.1,12.4,183,12.3,183z"/>
<circle class="st1" cx="79.4" cy="284" r="6"/>
<circle class="st1" cx="853.4" cy="332" r="6"/>
<g class="st2">
	<rect x="583.4" class="st3" width="3" height="17"/>
	<rect x="576.4" y="7" class="st3" width="17" height="3"/>
</g>
<g class="st2">
	<rect x="594.4" y="666" class="st3" width="3" height="17"/>
	<rect x="587.4" y="673" class="st3" width="17" height="3"/>
</g>
<g class="st2">
	<rect x="26.4" y="702" class="st3" width="3" height="17"/>
	<rect x="19.4" y="709" class="st3" width="17" height="3"/>
</g>
<g>
	<title>Layer 1</title>
	<path id="svg_1" class="st4" d="M854.9,488.4c0.1-0.1,3.7-3.2,3.7-3.2l-0.6-0.3c-0.4-0.2-0.3-0.4-0.2-0.6c0.1-0.3,0.7-2.4,0.7-2.4
		s-1.7,0.4-2,0.4c-0.3,0.1-0.4-0.1-0.4-0.3s-0.5-1.1-0.5-1.1s-1.8,2.1-1.9,2.2c-0.4,0.3-0.7,0-0.6-0.4c0-0.4,1-4.6,1-4.6
		s-1.1,0.6-1.4,0.8c-0.3,0.2-0.4,0.2-0.6-0.2c-0.2-0.3-1.5-2.8-1.5-2.8s-1.3,2.5-1.5,2.8c-0.2,0.4-0.4,0.4-0.6,0.2
		c-0.4-0.2-1.4-0.8-1.4-0.8s1,4.2,1,4.6c0.1,0.4-0.3,0.6-0.6,0.4c-0.1-0.1-1.9-2.2-1.9-2.2s-0.4,1-0.5,1.1s-0.2,0.3-0.4,0.3
		c-0.4-0.1-2-0.4-2-0.4s0.6,2.1,0.7,2.4c0.1,0.2,0.2,0.4-0.2,0.6l-0.6,0.3c0,0,3.6,3.2,3.7,3.2c0.2,0.2,0.4,0.3,0.2,0.8
		c-0.2,0.5-0.4,1.2-0.4,1.2s3.3-0.7,3.7-0.8c0.3,0,0.6,0.1,0.6,0.4c0,0.4-0.2,4-0.2,4h1.1c0,0-0.2-3.6-0.2-4c0-0.4,0.3-0.5,0.6-0.4
		c0.4,0.1,3.7,0.8,3.7,0.8s-0.2-0.7-0.4-1.2S854.7,488.5,854.9,488.4z"/>
</g>
<g>
	<title>Layer 1</title>
	<path id="svg_1_1_" class="st4" d="M758.9,257.4c0.1-0.1,3.7-3.2,3.7-3.2l-0.6-0.3c-0.4-0.2-0.3-0.4-0.2-0.6
		c0.1-0.3,0.7-2.4,0.7-2.4s-1.7,0.4-2,0.4c-0.3,0.1-0.4-0.1-0.4-0.3c-0.1-0.2-0.5-1.1-0.5-1.1s-1.8,2.1-1.9,2.2
		c-0.4,0.3-0.7,0-0.6-0.4c0-0.4,1-4.6,1-4.6s-1.1,0.6-1.4,0.8c-0.3,0.2-0.4,0.2-0.6-0.2c-0.2-0.3-1.5-2.8-1.5-2.8s-1.3,2.5-1.5,2.8
		c-0.2,0.4-0.4,0.4-0.6,0.2c-0.4-0.2-1.4-0.8-1.4-0.8s1,4.2,1,4.6c0.1,0.4-0.3,0.6-0.6,0.4c-0.1-0.1-1.9-2.2-1.9-2.2s-0.4,1-0.5,1.1
		c-0.1,0.2-0.2,0.3-0.4,0.3c-0.4-0.1-2-0.4-2-0.4s0.6,2.1,0.7,2.4c0.1,0.2,0.2,0.4-0.2,0.6l-0.6,0.3c0,0,3.6,3.2,3.7,3.2
		c0.2,0.2,0.4,0.3,0.2,0.8c-0.2,0.5-0.4,1.2-0.4,1.2s3.3-0.7,3.7-0.8c0.3,0,0.6,0.1,0.6,0.4c0,0.4-0.2,4-0.2,4h1.1
		c0,0-0.2-3.6-0.2-4c0-0.4,0.3-0.5,0.6-0.4c0.4,0.1,3.7,0.8,3.7,0.8s-0.2-0.7-0.4-1.2S758.7,257.5,758.9,257.4z"/>
</g>
<g>
	<title>Layer 1</title>
	<path id="svg_1_2_" class="st4" d="M125.9,685.9c0.1-0.1,3.7-3.2,3.7-3.2l-0.6-0.3c-0.4-0.2-0.3-0.4-0.2-0.6
		c0.1-0.3,0.7-2.4,0.7-2.4s-1.7,0.4-2,0.4c-0.3,0.1-0.4-0.1-0.4-0.3c-0.1-0.2-0.5-1.1-0.5-1.1s-1.8,2.1-1.9,2.2
		c-0.4,0.3-0.7,0-0.6-0.4c0-0.4,1-4.6,1-4.6s-1.1,0.6-1.4,0.8c-0.3,0.2-0.4,0.2-0.6-0.2c-0.2-0.3-1.5-2.8-1.5-2.8s-1.3,2.5-1.5,2.8
		c-0.2,0.4-0.4,0.4-0.6,0.2c-0.4-0.2-1.4-0.8-1.4-0.8s1,4.2,1,4.6c0.1,0.4-0.3,0.6-0.6,0.4c-0.1-0.1-1.9-2.2-1.9-2.2s-0.4,1-0.5,1.1
		c-0.1,0.2-0.2,0.3-0.4,0.3c-0.4-0.1-2-0.4-2-0.4s0.6,2.1,0.7,2.4c0.1,0.2,0.2,0.4-0.2,0.6l-0.6,0.3c0,0,3.6,3.2,3.7,3.2
		c0.2,0.2,0.4,0.3,0.2,0.8c-0.2,0.5-0.4,1.2-0.4,1.2s3.3-0.7,3.7-0.8c0.3,0,0.6,0.1,0.6,0.4s-0.2,4-0.2,4h1.1c0,0-0.2-3.6-0.2-4
		c0-0.4,0.3-0.5,0.6-0.4c0.4,0.1,3.7,0.8,3.7,0.8s-0.2-0.7-0.4-1.2C125.5,686.1,125.7,686,125.9,685.9z"/>
</g>
<path class="st5" d="M711,404.8c2.4-2.8,4.7-5.6,7.1-8.4c2.4,2.8,4.7,5.6,7.1,8.4l-7.1,8.2L711,404.8z"/>
<path class="st5" d="M105.5,562.8c2.4-2.8,4.7-5.6,7.1-8.4c2.4,2.8,4.7,5.6,7.1,8.4l-7.1,8.2L105.5,562.8z"/>
<path class="st5" d="M803.1,124.8l7-8.2c0-0.1,0.1-0.1,0.2,0l6.9,8.2c0,0,0,0.1,0,0.1l-6.9,8c0,0.1-0.1,0.1-0.2,0l-7-8
	C803,124.9,803,124.8,803.1,124.8z"/>
</svg>
