<?xml version="1.0" encoding="utf-8"?>
<!-- Generator: Adobe Illustrator 23.0.3, SVG Export Plug-In . SVG Version: 6.00 Build 0)  -->
<svg version="1.1" id="Laag_1" xmlns="http://www.w3.org/2000/svg" xmlns:xlink="http://www.w3.org/1999/xlink" x="0px" y="0px"
	 viewBox="0 0 1920 1080" style="enable-background:new 0 0 1920 1080;" xml:space="preserve">
<style type="text/css">
	.st0{fill:#353230;}
	.st1{fill:#FFFFFF;}
</style>
<polyline class="st0" points="962.61,316 892.33,469.43 859.33,397.4 752.98,629.55 962.59,765.4 1173.97,629.59 1067.61,397.4 
	1033.76,471.3 962.61,316 "/>
<polygon class="st0" points="1067.61,444.27 1142.72,608.23 1088.67,591.19 1044.49,494.73 "/>
<polygon class="st0" points="962.61,362.87 1066.45,589.53 858.78,589.53 "/>
<polygon class="st0" points="859.33,444.27 881.59,492.87 836.54,591.22 784.3,608.06 "/>
<polygon class="st0" points="790.08,628.69 839.94,612.62 916.92,710.89 "/>
<polygon class="st0" points="864.31,611.18 1060.92,611.18 962.61,736.69 "/>
<polygon class="st0" points="1007.86,711.45 1085.31,612.59 1136.58,628.76 "/>
<polygon class="st1" points="1067.61,444.27 1142.72,608.23 1088.67,591.19 1044.49,494.73 "/>
<polygon class="st1" points="962.61,362.87 1066.45,589.53 858.78,589.53 "/>
<polygon class="st1" points="859.33,444.27 881.59,492.87 836.54,591.22 784.3,608.06 "/>
<polygon class="st0" points="790.08,628.69 839.94,612.62 916.92,710.89 "/>
<polygon class="st1" points="864.31,611.18 1060.92,611.18 962.61,736.69 "/>
<polygon class="st0" points="1007.86,711.45 1085.31,612.59 1136.58,628.76 "/>
</svg>
