<?xml version="1.0" encoding="utf-8"?>
<!-- Generator: Adobe Illustrator 21.0.0, SVG Export Plug-In . SVG Version: 6.00 Build 0)  -->
<svg version="1.1" id="Laag_1" xmlns="http://www.w3.org/2000/svg" xmlns:xlink="http://www.w3.org/1999/xlink" x="0px" y="0px"
	 viewBox="0 0 1920 1080" style="enable-background:new 0 0 1920 1080;" xml:space="preserve">
<style type="text/css">
	.st0{fill:#353230;}
	.st1{fill:#00A040;}
	.st2{fill:#00C952;}
</style>
<polyline class="st0" points="962.6,316 892.3,469.4 859.3,397.4 753,629.5 962.6,765.4 1174,629.6 1067.6,397.4 1033.8,471.3 
	962.6,316 "/>
<polygon class="st0" points="1067.6,444.3 1142.7,608.2 1088.7,591.2 1044.5,494.7 "/>
<polygon class="st0" points="962.6,362.9 1066.4,589.5 858.8,589.5 "/>
<polygon class="st0" points="859.3,444.3 881.6,492.9 836.5,591.2 784.3,608.1 "/>
<polygon class="st0" points="790.1,628.7 839.9,612.6 916.9,710.9 "/>
<polygon class="st0" points="864.3,611.2 1060.9,611.2 962.6,736.7 "/>
<polygon class="st0" points="1007.9,711.5 1085.3,612.6 1136.6,628.8 "/>
<polygon class="st1" points="1067.6,444.3 1142.7,608.2 1088.7,591.2 1044.5,494.7 "/>
<polygon class="st2" points="962.6,362.9 1066.4,589.5 858.8,589.5 "/>
<polygon class="st1" points="859.3,444.3 881.6,492.9 836.5,591.2 784.3,608.1 "/>
<polygon class="st0" points="790.1,628.7 839.9,612.6 916.9,710.9 "/>
<polygon class="st1" points="864.3,611.2 1060.9,611.2 962.6,736.7 "/>
<polygon class="st0" points="1007.9,711.5 1085.3,612.6 1136.6,628.8 "/>
</svg>
