<?xml version="1.0" encoding="utf-8"?>
<!-- Generator: Adobe Illustrator 23.0.3, SVG Export Plug-In . SVG Version: 6.00 Build 0)  -->
<svg version="1.1" id="Laag_1" xmlns="http://www.w3.org/2000/svg" xmlns:xlink="http://www.w3.org/1999/xlink" x="0px" y="0px"
	 viewBox="0 0 1137.7 1297.7" style="enable-background:new 0 0 1137.7 1297.7;" xml:space="preserve">
<style type="text/css">
	.st0{fill:none;}
	.st1{fill:none;stroke:#535461;stroke-width:2;stroke-miterlimit:10;}
	.st2{opacity:0.3;fill:#38D39F;enable-background:new    ;}
	.st3{opacity:0.4;fill:#FFFFFF;enable-background:new    ;}
	.st4{opacity:0.1;fill:#252223;enable-background:new    ;}
	.st5{fill:url(#svg_353_1_);}
	.st6{fill:url(#svg_351_1_);}
	.st7{fill:url(#svg_349_1_);}
	.st8{fill:#F2F2F2;}
	.st9{opacity:0.1;fill:#38D39F;enable-background:new    ;}
	.st10{fill:#D38884;}
	.st11{fill:#444053;}
	.st12{fill:#B07473;}
	.st13{opacity:0.1;enable-background:new    ;}
	.st14{fill:#38D39F;}
	.st15{fill:#67647E;}
	.st16{fill:#585268;}
	.st17{fill:#E1E7EF;}
	.st18{fill:#A27772;}
	.st19{fill:#CC818C;}
	.st20{opacity:0.1;}
	.st21{fill:#F6F8FB;}
	.st22{fill:#65617D;}
	.st23{fill:#FBBEBE;}
	.st24{opacity:0.05;enable-background:new    ;}
	.st25{fill:#7C5C5C;}
	.st26{fill:#FDC2CC;}
	.st27{fill:#D39999;}
	.st28{fill:#7E5659;}
	.st29{fill:#865A61;}
	.st30{opacity:0.05;}
	.st31{opacity:0.5;fill:#FFFFFF;enable-background:new    ;}
	.st32{fill:#3F2B3B;}
	.st33{fill:none;stroke:#3F2B3B;stroke-miterlimit:10;}
	.st34{fill:#A8A8A8;}
	.st35{opacity:0.2;enable-background:new    ;}
	.st36{fill:#ACF3D7;}
	.st37{fill:#FFFFFF;}
</style>
<title>Vancouver Skyline</title>
<g>
	<title>background</title>
	<rect id="canvas_background" x="-1" y="-1" class="st0" width="1139.7" height="1299.7"/>
</g>
<g>
	<title>Layer 1</title>
	<g id="svg_409">
		<g id="svg_407" transform="matrix(1.1371872150142368,0,0,1.1371872150142368,-8736.912466446467,-4532.096932007094) ">
			<title  transform="translate(0.8793627023696899,4.547473508864641e-13) ">background</title>
			<rect id="svg_404" x="7704.26" y="4035.78" class="st0" width="582" height="402"/>
		</g>
		<g id="svg_408" transform="matrix(1.1371872150142368,0,0,1.1371872150142368,-8736.912466446467,-4532.096932007094) ">
			<title  transform="translate(0.8793627023696899,4.547473508864641e-13) ">Layer 1</title>
			<path id="svg_403" class="st1" d="M7572.03,4674.37"/>
			<polygon id="svg_402" class="st2" points="8616.26,4299.77 8616.26,4235.77 8578.26,4235.77 8578.26,4299.77 8533.26,4299.77 
				8533.26,4200.77 8500.26,4200.77 8500.26,4126.78 8473.26,4126.78 8473.26,4050.78 8417.26,4050.78 8417.26,4126.78 
				8390.26,4126.78 8390.26,4200.77 8358.26,4200.77 8358.26,4111.78 8340.26,4111.78 8340.26,4066.78 8329.26,4066.78 
				8329.26,4111.78 8265.26,4111.78 8265.26,4395.77 8216.26,4395.77 8216.26,4365.77 8186.26,4365.77 8186.26,4395.77 
				8137.26,4395.77 8137.26,4299.77 8049.26,4299.77 8049.26,4235.77 8011.26,4235.77 8011.26,4299.77 8009.26,4299.77 
				8009.26,4422.77 7969.26,4422.77 7969.26,4350.77 7921.26,4350.77 7921.26,4422.77 7881.26,4422.77 7881.26,4200.77 
				7850.26,4200.77 7850.26,4126.78 7736.26,4126.78 7736.26,4200.77 7706.26,4200.77 7706.26,4591.77 7881.26,4591.77 
				8009.26,4591.77 8137.26,4591.77 8265.26,4591.77 8358.26,4591.77 8533.26,4591.77 8661.26,4591.77 8661.26,4299.77 			"/>
			<rect id="svg_401" x="7724.26" y="4209.78" class="st3" width="42" height="24"/>
			<rect id="svg_400" x="7818.26" y="4209.77" class="st3" width="42" height="24"/>
			<rect id="svg_399" x="7724.26" y="4256.78" class="st3" width="42" height="24"/>
			<rect id="svg_398" x="7818.26" y="4256.77" class="st3" width="42" height="24"/>
			<rect id="svg_397" x="7724.26" y="4303.78" class="st3" width="42" height="24"/>
			<rect id="svg_396" x="7818.26" y="4303.77" class="st3" width="42" height="24"/>
			<rect id="svg_395" x="7724.26" y="4350.78" class="st3" width="42" height="24"/>
			<rect id="svg_394" x="7818.26" y="4350.77" class="st3" width="42" height="24"/>
			<rect id="svg_393" x="7724.26" y="4397.78" class="st3" width="42" height="24"/>
			<rect id="svg_392" x="7818.26" y="4397.77" class="st3" width="42" height="24"/>
			<rect id="svg_391" x="7724.26" y="4444.78" class="st3" width="42" height="24"/>
			<rect id="svg_390" x="7818.26" y="4444.77" class="st3" width="42" height="24"/>
			<rect id="svg_389" x="7724.26" y="4491.78" class="st3" width="42" height="24"/>
			<rect id="svg_388" x="7818.26" y="4491.77" class="st3" width="42" height="24"/>
			<rect id="svg_387" x="7895.26" y="4432.78" class="st3" width="98" height="12"/>
			<rect id="svg_386" x="7895.26" y="4450.78" class="st3" width="98" height="12"/>
			<rect id="svg_385" x="7895.26" y="4468.78" class="st3" width="98" height="12"/>
			<rect id="svg_384" x="8151.26" y="4438.78" class="st3" width="98" height="12"/>
			<rect id="svg_383" x="8151.26" y="4456.78" class="st3" width="98" height="12"/>
			<rect id="svg_382" x="8151.26" y="4474.78" class="st3" width="98" height="12"/>
			<rect id="svg_381" x="7895.26" y="4486.78" class="st3" width="98" height="12"/>
			<rect id="svg_380" x="7895.26" y="4504.78" class="st3" width="98" height="12"/>
			<rect id="svg_379" x="7895.26" y="4522.78" class="st3" width="98" height="12"/>
			<rect id="svg_378" x="8029.26" y="4308.78" class="st3" width="27" height="35"/>
			<rect id="svg_377" x="9126.26" y="5107.27" class="st3" width="27" height="35"/>
			<rect id="svg_376" x="8029.26" y="4364.78" class="st3" width="27" height="35"/>
			<rect id="svg_375" x="8088.26" y="4364.77" class="st3" width="27" height="35"/>
			<rect id="svg_374" x="8029.26" y="4420.78" class="st3" width="27" height="35"/>
			<rect id="svg_373" x="8088.26" y="4420.77" class="st3" width="27" height="35"/>
			<rect id="svg_372" x="8029.26" y="4476.78" class="st3" width="27" height="35"/>
			<rect id="svg_371" x="8088.26" y="4476.77" class="st3" width="27" height="35"/>
			<rect id="svg_370" x="8264.26" y="4120.78" class="st3" width="36" height="46"/>
			<rect id="svg_369" x="8264.26" y="4186.78" class="st3" width="36" height="46"/>
			<rect id="svg_368" x="8264.26" y="4252.78" class="st3" width="36" height="46"/>
			<rect id="svg_367" x="8264.26" y="4318.78" class="st3" width="36" height="46"/>
			<rect id="svg_366" x="8264.26" y="4384.78" class="st3" width="36" height="46"/>
			<rect id="svg_365" x="8264.26" y="4450.78" class="st3" width="36" height="46"/>
			<rect id="svg_364" x="8377.76" y="4214.78" class="st3" width="134" height="39"/>
			<rect id="svg_363" x="8378.26" y="4298.78" class="st3" width="134" height="39"/>
			<rect id="svg_362" x="8378.76" y="4382.78" class="st3" width="134" height="39"/>
			<rect id="svg_361" x="8379.26" y="4466.78" class="st3" width="134" height="39"/>
			<rect id="svg_360" x="7735.26" y="4133.78" class="st3" width="18" height="38"/>
			<rect id="svg_359" x="8615.26" y="4308.78" class="st3" width="45" height="58"/>
			<rect id="svg_358" x="8615.26" y="4392.78" class="st3" width="45" height="58"/>
			<rect id="svg_357" x="8615.26" y="4476.78" class="st3" width="45" height="58"/>
			<path id="svg_356" class="st4" d="M7969.94,4084.46h-6.88c2.66,0.12,4.91-1.94,5.04-4.59s-1.94-4.91-4.59-5.04
				c-0.15-0.01-0.29-0.01-0.44,0h-55.73c-2.66,0.12-4.72,2.38-4.59,5.04c0.11,2.49,2.11,4.48,4.59,4.59h6.88
				c-2.66-0.12-4.91,1.94-5.04,4.59s1.94,4.91,4.59,5.04c0.15,0.01,0.29,0.01,0.44,0h-9.63c-2.66-0.12-4.91,1.94-5.04,4.59
				s1.94,4.91,4.59,5.04c0.15,0.01,0.29,0.01,0.44,0h55.73c2.66,0.12,4.91-1.94,5.04-4.59s-1.94-4.91-4.59-5.04
				c-0.15-0.01-0.29-0.01-0.44,0h9.63c2.66,0.12,4.91-1.94,5.04-4.59s-1.94-4.91-4.59-5.04
				C7970.24,4084.45,7970.09,4084.45,7969.94,4084.46z"/>
			<path id="svg_355" class="st4" d="M8634.94,4047.46h-6.88c2.66,0.12,4.91-1.94,5.04-4.59c0.12-2.66-1.94-4.91-4.59-5.04
				c-0.15-0.01-0.29-0.01-0.44,0h-55.73c-2.66,0.12-4.72,2.38-4.59,5.04c0.11,2.49,2.11,4.48,4.59,4.59h6.88
				c-2.66-0.12-4.91,1.94-5.04,4.59c-0.12,2.66,1.94,4.91,4.59,5.04c0.15,0.01,0.29,0.01,0.44,0h-9.63
				c-2.66-0.12-4.91,1.94-5.04,4.59c-0.12,2.66,1.94,4.91,4.59,5.04c0.15,0.01,0.29,0.01,0.44,0h55.73
				c2.66-0.12,4.72-2.38,4.59-5.04c-0.11-2.49-2.11-4.48-4.59-4.59h9.63c2.66,0.12,4.91-1.94,5.04-4.59
				c0.12-2.66-1.94-4.91-4.59-5.04C8635.24,4047.45,8635.09,4047.45,8634.94,4047.46z"/>
			
				<linearGradient id="svg_353_1_" gradientUnits="userSpaceOnUse" x1="8049.688" y1="5127.3496" x2="8050.8784" y2="5127.3496" gradientTransform="matrix(1.3532 0 0 -0.9895 -2173.6453 9466.8447)">
				<stop  offset="0" style="stop-color:#808080;stop-opacity:0.25"/>
				<stop  offset="0.54" style="stop-color:#808080;stop-opacity:0.12"/>
				<stop  offset="1" style="stop-color:#808080;stop-opacity:0.1"/>
			</linearGradient>
			<path id="svg_353" class="st5" d="M8102.83,4392.97c-0.77,0.56-1.19,0.87-1.19,0.87
				C8102.08,4393.61,8102.48,4393.31,8102.83,4392.97z"/>
			
				<linearGradient id="svg_351_1_" gradientUnits="userSpaceOnUse" x1="8050.5059" y1="5127.3496" x2="8051.7061" y2="5127.3496" gradientTransform="matrix(1.3532 0 0 -0.9895 -2172.7156 9467.7842)">
				<stop  offset="0" style="stop-color:#808080;stop-opacity:0.25"/>
				<stop  offset="0.54" style="stop-color:#808080;stop-opacity:0.12"/>
				<stop  offset="1" style="stop-color:#808080;stop-opacity:0.1"/>
			</linearGradient>
			<path id="svg_351" class="st6" d="M8103.76,4393.91c-0.77,0.56-1.19,0.87-1.19,0.87
				C8103.01,4394.55,8103.41,4394.25,8103.76,4393.91z"/>
			
				<linearGradient id="svg_349_1_" gradientUnits="userSpaceOnUse" x1="8050.5059" y1="5127.3496" x2="8051.7061" y2="5127.3496" gradientTransform="matrix(1.3532 0 0 -0.9895 -2172.7156 9466.8447)">
				<stop  offset="0" style="stop-color:#808080;stop-opacity:0.25"/>
				<stop  offset="0.54" style="stop-color:#808080;stop-opacity:0.12"/>
				<stop  offset="1" style="stop-color:#808080;stop-opacity:0.1"/>
			</linearGradient>
			<path id="svg_349" class="st7" d="M8103.76,4392.97c-0.77,0.56-1.19,0.87-1.19,0.87
				C8103.01,4393.61,8103.41,4393.31,8103.76,4392.97z"/>
			
				<ellipse id="svg_348" transform="matrix(0.9008 -0.4343 0.4343 0.9008 -1100.62 3931.4182)" class="st8" cx="8053.13" cy="4374.28" rx="1.37" ry="1.82"/>
		</g>
	</g>
	<path id="svg_1" class="st9" d="M34.04,837.05c18,70.1,56.1,130.8,116.3,160.2c125.2,61.1,407.5,29.6,618.1-6.6
		c109-18.7,204.7-70.3,274.3-143L34.04,837.05L34.04,837.05z"/>
	<path id="svg_3" class="st9" d="M24.24,690.65c-4.4,40.8-2.9,82,4.5,122.4l1014.9,33.8c28-29.2,51.7-62.2,70.5-98L24.24,690.65
		L24.24,690.65z M425.54,777.95h-20c5.5,0,10,4.1,10,9.1s-4.5,9.1-10,9.1h-115.5c-5.5,0-10-4.1-10-9.1s4.5-9.1,10-9.1h20
		c-5.5,0-10-4.1-10-9.1s4.5-9.1,10-9.1h-14.3c-5.5,0-10-4.1-10-9.1s4.5-9.1,10-9.1h115.6c5.5,0,10,4.1,10,9.1s-4.5,9.1-10,9.1h14.2
		c5.5,0,10,4.1,10,9.1S431.14,777.95,425.54,777.95L425.54,777.95z"/>
	<ellipse id="svg_5" class="st9" cx="686.04" cy="1176.1" rx="75.2" ry="16.9"/>
	<ellipse id="svg_6" class="st9" cx="860.94" cy="1229.8" rx="135.7" ry="11.1"/>
	<ellipse id="svg_7" class="st9" cx="315.94" cy="1212.9" rx="135.7" ry="16.9"/>
	<ellipse id="svg_8" class="st9" cx="522.84" cy="1128.3" rx="102.1" ry="16.9"/>
	<ellipse id="svg_9" class="st9" cx="551.44" cy="1269" rx="81.8" ry="16.9"/>
	<path id="svg_10" class="st0" d="M599.24,726.5c-2.2-14.5-15.4-48.5-15.4-48.5l0,0c-0.2-1-0.5-2-0.8-3c-9.4-32.2-22.3-35-22.3-35
		l-46.5-10c0.4,0.2,0.7,0.6,1,0.9c-0.2,0-0.5,0.1-0.7,0.1c-2.1-2.5-3.5-5.6-4.1-8.8c-0.1-0.5-0.2-1-0.2-1.5
		c12.9-12.6,13.2-33.3,0.6-46.2c-1-1-2.1-2-3.3-2.9c-0.5-0.4-1-0.8-1.5-1.1c2.2-2.3,2.3-5.6,0.6-8.8c-3.7-7.6-11.6-12.4-19.8-14.8
		c-6.3-1.8-13-2.4-19.2-0.4c-3.5,1.1-6.8,3-10.1,4.7c-6.2,3.1-13,5.5-17.6,10.6c-1.1,1.2-2.1,2.7-1.8,4.3c0.2,1.2,1.2,2.1,1.8,3.1
		c1.3,2.3,1,5.2,0.1,7.7s-2.2,4.9-2.9,7.4s-0.4,5.6,1.5,7.5c0.9,0.7,1.9,1.4,2.9,2c1.1,0.9,2,2,2.8,3.1c1.8,2.5,3.7,4.9,5.5,7.4
		c2.6,3.3,4.9,6.8,6.9,10.5c1.4,2.7,2.4,5.6,4.3,8c0.5,0.7,1.2,1.4,1.8,1.9l-0.5-0.2c1.6,1.6,3.8,2.5,6.1,2.5l0,0c0.1,0,0.2,0,0.3,0
		c0.4,0,0.8-0.2,1.1-0.5c0,0.3,0,0.7,0,1c0.1,3.6,0.1,7.4-0.2,10.9l-0.4-0.2c-1.3-0.6-2.9-0.5-4,0.4l-42.8,34.3c0,0-9.3,12.7-8,34.7
		l-7.5,32.9c0,0-9.4,27.9-2.2,47.9s11.4,31.4,11.4,31.4s2.9,22.7,7.2,24.5s6.2,2.8,6.2,2.8l0.9,5.4l0,0c0,0,0.3,0.5,0.8,1.4
		c3.1,5.5,14.8,24.8,21.6,22.8c0.9,5.3,1.2,10.6,1.1,15.9l6.7,45c0,0,4.7,12.3,4.4,18.7s5.5,15.6,5.5,15.6c-3.5,6.4-4.5,13.8-2.9,21
		c2.7,12,6.2,67.3,6.2,67.3l5,13.4l-0.1,15.7c-0.4,2.6-1.5,5-3.1,7c-3.2,3.5-3,7.6-10.8,12.4s-12.8,6.6-12.8,13
		c0,0.9-0.1,1.8-0.2,2.7c-0.7,4.7-2.1,7.2,12.2,8.6c16.9,1.6,28.1-9.4,28.1-9.4s2.5-4.5,14.2-6.3c0,0,4-0.2,4.2-3.7
		c0.1-1.2,0.1-3.5,0-6.1c-0.2-4.9-0.7-10.6-1.3-10.9c-0.8-0.3-2.1-5.3-2.6-7h3.3c0,0,3-22.7,0-37.3s-0.3-25.1-0.3-25.1l-0.6-38.8
		c0,0-4-4.3-0.9-11.8s0-44.9,0-44.9s1.2-13.4,4.5-16.5s0.2-19.6,0-20.5l5.9,19.8c0,0,2.6,39.3,8.1,46.5l1.6,17.8
		c0,0,11.2,16.4,9.1,25.2s2.3,40.8,2.3,40.8v32.7c0,0-5,13.1,2,17.8l3-0.1c-1,0.9-1.8,2.3-2.9,3.5c-1.3,1.4-2.1,6.7-2.5,11.2
		c-0.4,3.8-0.5,7.2-0.5,7.2s3,4.8,8.7,5.1s24.3,14.5,24.3,14.5s18.4,0,23.2-1l0.3-0.1c1.5-0.5,2.8-1.5,3.6-2.9
		c1-1.6,1.3-3.5,0.9-5.4c-0.6-2.8-2.8-5.9-7.8-8.5c-12.3-6.5-14.1-12.5-14.1-12.5l-8.1-12.1h1.2c0,0-0.7-12.8,8.1-27.2l-0.6-63.4
		c0,0,3.6-21.8-2.6-33.7c0,0-0.5-12.5,3.6-16.4s-5.5-42.8-5.5-42.8s-2-20.9-4.3-40l0,0c9.7,9.2,19.8-24,21.5-29.9h0.3l-0.1-0.4
		c0.1-0.3,0.1-0.4,0.1-0.4l0,0c0,0-2.2-7.7-0.6-6.1s5.5-4.3,5.5-4.3s-0.6-31.8,6.2-47.8C609.04,765.5,599.24,726.5,599.24,726.5
		L599.24,726.5z M570.24,746.8L570.24,746.8c1,19.3-0.1,60.7-0.1,60.7s-1.3,5.3-2.8,11.6l-1-39.3l0,0l-1-37.1L570.24,746.8
		L570.24,746.8z M446.14,733.4c0,0,4.9,61.3,0,70.1c-1.4,2.5-2.6,7-3.5,12.1c-1.6-4.3-5-14.2-3.8-19.5c1.6-6.8-3.2-24.8-3.2-25.2
		s-0.4-10,3-17.3s1.2-10.5,1.2-10.5S442.64,731.1,446.14,733.4L446.14,733.4z"/>
	<path id="svg_11" class="st10" d="M458.04,871.4c-4.3,18.8-21.3-9.6-25.1-16.4c-0.5-0.9-0.8-1.4-0.8-1.4l1.8-8.6l9.7-4
		c1.5,0.8,3,1.8,4.4,2.8C453.34,848,461.34,856.9,458.04,871.4L458.04,871.4z"/>
	<path id="svg_12" class="st10" d="M589.74,840.7c0,0,0,0.1-0.1,0.4c0,0.1-0.1,0.3-0.1,0.5c-1.7,5.9-11.6,38.9-21.1,29.7
		c-10.5-10-5.4-33.1-5.4-33.1h0.1l22-2.3l4.4,4.5l0,0L589.74,840.7L589.74,840.7z"/>
	<path id="svg_13" class="st11" d="M577.04,1003.1l0.6,63c-8.6,14.3-7.9,27-7.9,27l-28.4,1.1c-6.9-4.7-2-17.7-2-17.7v-32.4
		c0,0-4.4-31.7-2.3-40.5s-8.9-25-8.9-25l-1.6-17.7c-5.4-7.1-7.9-46.1-7.9-46.1l-5.8-19.7c0.2,0.9,3.2,17.3,0,20.3
		s-4.4,16.4-4.4,16.4s3.1,37.1,0,44.6s0.8,11.8,0.8,11.8l0.6,38.5c0,0-2.7,10.3,0.3,24.9s0,37.1,0,37.1h-30.5l0.1-15.7l-4.9-13.3
		c0,0-3.4-54.9-6.1-66.8c-1.6-7-0.6-14.4,2.8-20.8c0,0-5.6-9-5.4-15.4s-4.4-18.5-4.4-18.5l-6.6-44.7c0.2-8.6-0.9-17.2-3.3-25.5
		c-3.8-12.7-9.5-29.4-9.5-29.4l6.4,0.6l32.2,2.9c0,0,78.4-5.3,81.9-0.9c0.7,1.4,1.2,3,1.5,4.6c3.5,15.8,8.2,65.3,8.2,65.3
		s9.5,38.6,5.4,42.4s-3.6,16.3-3.6,16.3C580.54,981.4,577.04,1003.1,577.04,1003.1L577.04,1003.1z"/>
	<path id="svg_14" class="st12" d="M510.74,1112.5c-0.2,3.5-4.1,3.7-4.1,3.7c-11.5,1.8-13.9,6.3-13.9,6.3s-11,10.9-27.6,9.3
		c-14.1-1.4-12.7-3.9-12-8.5c0.1-0.9,0.2-1.7,0.2-2.6c0-6.4,4.9-8.2,12.5-13s7.4-8.8,10.6-12.3s3.5-10.3,3.5-10.3
		c3.6-6.3,12.7,1,12.7,1c0.4,2.2,14,1.9,14,1.9s1.8,7.2,2.7,7.6c0.6,0.3,1.1,5.9,1.3,10.8C510.84,1109,510.84,1111.3,510.74,1112.5
		L510.74,1112.5z"/>
	<path id="svg_15" class="st13" d="M510.74,1112.5c-0.2,3.5-4.1,3.7-4.1,3.7c-11.5,1.8-13.9,6.3-13.9,6.3s-11,10.9-27.6,9.3
		c-14.1-1.4-12.7-3.9-12-8.5c6.3,1.6,18.3,3.7,25.4-0.1c9.8-5.3,16.8-9,16.8-9l15.4-7.8C510.84,1109,510.84,1111.3,510.74,1112.5
		L510.74,1112.5z"/>
	<path id="svg_16" class="st12" d="M597.14,1131.4c-0.8,1.4-2,2.4-3.5,2.9l-0.3,0.1c-4.7,1-22.7,1-22.7,1s-18.3-14.1-23.8-14.4
		s-8.5-5.1-8.5-5.1s0.1-3.3,0.5-7.1c0.4-4.5,1.2-9.8,2.5-11.2c2.4-2.5,3-6,8.5-3.8c0,0,7.8-13.8,17.1-3.1l9.6,14.5
		c0,0,1.8,6,13.9,12.5c4.8,2.6,7,5.7,7.6,8.5C598.34,1127.9,598.04,1129.8,597.14,1131.4L597.14,1131.4z"/>
	<path id="svg_17" class="st13" d="M597.14,1131.4c-1.1,0.9-2.3,1.9-3.5,2.9l-0.3,0.1c-4.7,1-22.7,1-22.7,1s-18.3-14.1-23.8-14.4
		s-8.5-5.1-8.5-5.1s0.1-3.3,0.5-7.1c5.6,1.7,14.1,4.7,16.4,7.8c3.5,4.9,14.1,11.7,14.1,11.7s19.8-1.9,28.6-2.2
		C598.34,1127.9,598.04,1129.8,597.14,1131.4L597.14,1131.4z"/>
	<path id="svg_18" class="st10" d="M520.04,637.6l-26.1,27.6c0,0-31.6-2.3-26.1-11.7c2.8-4.8,3.3-14.7,3-23.4
		c-0.2-8.4-1.1-15.5-1.1-15.5s44.4-22.1,41-1.5c-0.7,3.9-0.8,7.9-0.1,11.8C512.44,635.3,520.04,637.6,520.04,637.6L520.04,637.6z"/>
	<path id="svg_19" class="st13" d="M510.64,613.2c-0.7,3.9-0.8,7.9-0.1,11.8c-6.1,6.2-14.5,9.7-23.2,9.7c-6,0-12.5-4.9-17.3-7.8
		c-0.2-8.4-0.3-12.2-0.3-12.2S514.04,592.6,510.64,613.2z"/>
	<path id="svg_20" class="st10" d="M520.04,600.2c0,18.1-14.6,32.7-32.7,32.7s-32.7-14.6-32.7-32.7c0-18.1,14.6-32.7,32.7-32.7
		c7.4,0,14.6,2.5,20.4,7.1C515.44,580.9,520.04,590.3,520.04,600.2L520.04,600.2z"/>
	<path id="svg_21" class="st13" d="M564.44,845.6c-8.1,19.4-60.5,19.8-60.5,19.8v-21.2l-3.2-0.2c1.4,6-1.9,20.8-1.9,20.8
		c-41.4,5.8-51.5-17.7-51.5-17.7l1.4-8.1l32.2,2.9c0,0,78.4-5.3,81.9-0.9C563.74,842.4,564.24,844,564.44,845.6L564.44,845.6z"/>
	<path id="svg_22" class="st14" d="M503.94,862.8v-21.1l-3.2-0.2c1.4,6-1.9,20.8-1.9,20.8c-31.1,4.4-44.6-7.9-49.3-14.2
		c-0.9-1.1-1.6-2.3-2.2-3.5l12.6-71.1l3-104.6l4.5-18.4l1-8.8v-0.1h0.1l3.2,1.4l19.3,8.3l21.9-16.5l0.3-0.2l1.1-0.8l1.8,1.4l4.5,3.6
		l14.4,93.2c0,0,25,71.8,29.7,100.7c0.2,1.2,0.3,2.2,0.5,3.3C568.54,862.3,503.94,862.8,503.94,862.8L503.94,862.8z"/>
	<circle id="svg_23" class="st15" cx="493.54" cy="653.3" r="1.9"/>
	<circle id="svg_24" class="st15" cx="494.44" cy="670.3" r="1.9"/>
	<circle id="svg_25" class="st15" cx="496.24" cy="697.8" r="1.9"/>
	<circle id="svg_26" class="st15" cx="499.34" cy="727.4" r="1.9"/>
	<circle id="svg_27" class="st15" cx="501.24" cy="755.2" r="1.9"/>
	<circle id="svg_28" class="st15" cx="503.04" cy="784.8" r="1.9"/>
	<circle id="svg_29" class="st15" cx="502.34" cy="814.1" r="1.9"/>
	<path id="svg_30" class="st13" d="M469.84,783.8c0,0-2.1,27.2-5.9,35.1s-5.5,30.1-5.5,30.1l-8.9-1c-0.9-1.1-1.6-2.3-2.2-3.5
		l12.6-71.1l3-104.6l4.5-18.4l1-8.8l0.1-0.1c1-0.5,2.2-0.5,3.2,0.1l0.4,0.2c-0.1,0.4-0.2,0.7-0.4,1.1c-3.5,10.8-4.8,30.8-4.8,30.8
		s5,36.5,5.5,53.5S469.84,783.8,469.84,783.8L469.84,783.8z"/>
	<path id="svg_31" class="st13" d="M448.04,843.8c-0.1,0.2-0.2,0.4-0.3,0.7c-3.4,5.8-12.2,9.5-14.8,10.5c-0.5-0.9-0.8-1.4-0.8-1.4
		l1.8-8.6l9.7-4C445.24,841.8,446.74,842.7,448.04,843.8L448.04,843.8z"/>
	<path id="svg_32" class="st15" d="M424.54,704.9l-8.1,4.8l-7.4,32.7c0,0-9.2,27.7-2.1,47.5s11.2,31.1,11.2,31.1s2.8,22.5,7.1,24.3
		c4.3,1.8,6.1,2.8,6.1,2.8l0.9,5.4c0,0,11.5-3.9,15.6-10.8c4.1-6.9-3-24-3-24s-6.1-14.6-4.5-21.4c1.6-6.8-3.1-24.6-3.1-25
		s-0.4-9.9,3-17.2s1.1-10.4,1.1-10.4l-2.1-20.8L424.54,704.9L424.54,704.9z"/>
	<path id="svg_33" class="st13" d="M565.14,839.4c0,0-21.4,8.1-28.2,1s-6.1-40.2-6.1-40.2s-6.5-61.1-10.6-71.2s-2-82.5-2-82.5
		s-2.8-9.4-5.2-11.8c-0.2-0.2-0.3-0.3-0.5-0.4l0.8,0.2l2.9,0.6l4.5,3.6l14.4,93.2c0,0,25,71.8,29.7,100.7L565.14,839.4L565.14,839.4
		z"/>
	<path id="svg_34" class="st13" d="M589.74,841.6h-0.2c-2.7,0.4-26.4,3.2-26.5-1.7c0-0.6,0-1.1,0.1-1.7l22-2.3l4.4,4.5l0,0
		c0.1,0.3,0.1,0.5,0.2,0.7V841.6z"/>
	<path id="svg_35" class="st15" d="M566.94,672.1l15.6,8.1c0,0,13,33.7,15.1,48.1c0,0,9.6,38.7,3,54.6c-6.6,15.9-6.1,47.5-6.1,47.5
		s-3.8,5.8-5.4,4.3s0.6,6.1,0.6,6.1s-26.7,3.5-26.8-1.7s6.1-30.3,6.1-30.3s1.7-59.6-0.7-68.9
		C565.94,730.5,566.94,672.1,566.94,672.1L566.94,672.1z"/>
	<path id="svg_36" class="st13" d="M520.44,735.6c0,0-8.8,21.5-11.6,22.9c-2.8,1.4,0.6,7.1,0.6,7.1S525.34,743.2,520.44,735.6z"/>
	<path id="svg_37" class="st13" d="M515.14,660.2c0.1-0.4-10.5,10.4-13.3,12S512.24,672.1,515.14,660.2z"/>
	<path id="svg_38" class="st13" d="M485.74,733.9c0,0-16.1,10.4-14,14.6S485.74,733.9,485.74,733.9z"/>
	<path id="svg_39" class="st13" d="M515.04,886.1c0,0,13.7,8.8,35.1,11L515.04,886.1z"/>
	<path id="svg_40" class="st13" d="M482.04,907.4c0,0,12.7,16,18.5,16.4C506.44,924.2,482.04,907.4,482.04,907.4z"/>
	<path id="svg_41" class="st13" d="M499.94,970.1c-0.6,0.3-7.2,14.4-14,14.9S499.94,970.1,499.94,970.1z"/>
	<path id="svg_42" class="st13" d="M558.94,1001.1c0,0,12.6-2.8,15.4,6.2C574.34,1007.2,573.54,1004.4,558.94,1001.1z"/>
	<path id="svg_43" class="st13" d="M550.44,1052.8c0,0,15.3-3.1,18.5,1.1S550.44,1052.8,550.44,1052.8z"/>
	<path id="svg_44" class="st13" d="M507.14,1060.1c0,0.1-15.6,3.1-15,5.1s16.6,1.7,17.2-1.4
		C509.74,1062.1,508.84,1060.5,507.14,1060.1C507.24,1060.1,507.14,1060.1,507.14,1060.1z"/>
	<path id="svg_45" class="st13" d="M545.34,1073.5c0,0,25.6-3.1,24,2.3S545.34,1073.5,545.34,1073.5z"/>
	<path id="svg_46" class="st13" d="M411.44,758.5c0.1,0.4,16.8,2.7,19.1,8.1c0,0-16.4-7.6-19-7.6"/>
	<path id="svg_47" class="st13" d="M434.94,802.2c0,0-13.9,4.4-12.9,11S420.64,810.2,434.94,802.2z"/>
	<path id="svg_48" class="st13" d="M428.54,835.9c0,0,5-6.9,9.9-5.7C443.14,831.5,428.54,835.9,428.54,835.9z"/>
	<path id="svg_49" class="st13" d="M507.74,574.7c-0.5,0.5-1,0.9-1.6,1.2c-4,2.3-5.1,5.9-7,10.1c-1.8,3.8-3.7,7.8-7.3,9.9
		c-4.6,2.8-10.7,1.8-15.5,4.2c-4.4,2.3-6.9,6.9-6.4,11.8c0.3,1.8,0.8,3.7,1.4,5.4c1.1,3.8,1.6,7.8,1.5,11.8c0,0.1,0,0.2,0,0.4
		c-16.1-8.1-22.7-27.7-14.6-43.8s27.7-22.7,43.8-14.6C504.04,572,505.94,573.3,507.74,574.7L507.74,574.7L507.74,574.7z"/>
	<path id="svg_50" class="st16" d="M506.84,564.8c-3.6-7.5-11.4-12.3-19.4-14.6c-6.1-1.8-12.8-2.4-18.9-0.4c-3.5,1.1-6.6,3-9.9,4.6
		c-6.1,3.1-12.7,5.5-17.3,10.5c-1.1,1.2-2,2.7-1.7,4.2c0.2,1.1,1.1,2,1.7,3.1c1.3,2.3,1,5.2,0.1,7.7s-2.2,4.8-2.8,7.4
		s-0.4,5.6,1.5,7.4c0.9,0.8,1.9,1.3,2.9,2c1,0.9,2,1.9,2.7,3.1l5.4,7.4c2.5,3.3,4.8,6.7,6.8,10.4c1.3,2.7,2.4,5.5,4.2,7.9
		s4.6,4.3,7.6,4.1c0.5,0,0.9-0.2,1.2-0.6c0.1-0.2,0.2-0.5,0.1-0.8c0.1-4-0.4-7.9-1.4-11.7c-0.6-1.8-1.1-3.6-1.4-5.4
		c-0.5-4.9,2.1-9.6,6.4-11.8c4.8-2.4,10.9-1.4,15.5-4.2c3.6-2.2,5.5-6.2,7.3-10c1.9-4.1,3-7.7,7-10.1
		C508.34,572.7,508.84,568.8,506.84,564.8L506.84,564.8z"/>
	<path id="svg_51" class="st13" d="M492.24,1099.1c0,0,5,6.4,3.7,10S492.24,1099.1,492.24,1099.1z"/>
	<path id="svg_52" class="st13" d="M559.84,1115.1c0,0,1.1-8.5,5.6-8.6s4.7-0.5,8.1,0.8s6.6,3.3,5.6,3.6s-5.8-4.9-10.8-2.2
		C565.14,1110.4,562.34,1112.5,559.84,1115.1L559.84,1115.1z"/>
	<path id="svg_53" class="st13" d="M477.24,661.9l14-9.8c0,0-20.5-12.1-22.9-10.4s-4.1,17-4.1,17L477.24,661.9z"/>
	<path id="svg_54" class="st17" d="M477.24,661.3l14-10c0,0-20.5-12.1-22.9-10.4s-4.1,17.8-4.1,17.8L477.24,661.3L477.24,661.3z"/>
	<path id="svg_55" class="st14" d="M477.24,661.3l14-10c0,0-20.5-12.1-22.9-10.4s-4.1,17.8-4.1,17.8L477.24,661.3L477.24,661.3z"/>
	<path id="svg_56" class="st15" d="M470.64,641l-0.4-0.2c-1.3-0.7-2.8-0.5-3.9,0.4l-42,34.1c0,0-9.1,12.6-7.9,34.4l24.8,35.1
		c0,0,2.8-11.9,6.2-9.6c0,0,4.8,60.8,0,69.6s-6.9,41.6-6.9,41.6l16.2,1.8c0,0,1.7-22.2,5.5-30.1s5.9-35.1,5.9-35.1
		s3.4-39.6,2.9-56.5c-0.6-17-5.5-53.5-5.5-53.5S466.94,651.5,470.64,641L470.64,641z"/>
	<path id="svg_57" class="st13" d="M512.44,655.7l-17.5-6.5c0,0,22.2-24.3,25-10.8L512.44,655.7z"/>
	<path id="svg_58" class="st17" d="M512.44,654.9l-17.5-6.5c0,0,22.2-24.3,25-10.8L512.44,654.9z"/>
	<path id="svg_59" class="st14" d="M512.44,654.9l-17.5-6.5c0,0,22.2-24.3,25-10.8L512.44,654.9z"/>
	<path id="svg_60" class="st13" d="M511.94,634.2c0.3,0,0.5,0,0.7,0.2L511.94,634.2z"/>
	<path id="svg_61" class="st15" d="M513.54,632.5l46.3,10c0,0,12.7,2.8,21.9,34.8s-12.6,71.2-12.6,71.2l-4.8-4.1l2.4,93.4
		c0,0-21.4,8.1-28.2,1s-6.1-40.2-6.1-40.2s-6.5-61.1-10.6-71.2c-4.1-10-2-82.5-2-82.5S516.14,631.9,513.54,632.5L513.54,632.5z"/>
	<path id="svg_62" class="st13" d="M555.94,692c-0.7,0.6-1.4,28.9,1.4,50.4c1.7,13.1,4.4,26.1,8,38.8l-4.2-86.2
		C561.14,695,557.94,690.2,555.94,692z"/>
	<path id="svg_63" class="st13" d="M550.24,667.7c1.1,0.7,6.1,12.5,3.8,17.3C551.84,689.7,550.24,667.7,550.24,667.7z"/>
	<path id="svg_64" class="st13" d="M506.54,564.8c-2.3-4.5-5.8-8.2-10.2-10.7c3.2,2.3,5.9,5.4,7.6,9c2,4,1.4,8-2.5,10.2
		s-5.1,5.9-7,10.1c-1.8,3.8-3.7,7.8-7.3,10c-4.6,2.8-10.7,1.8-15.5,4.2c-4.3,2.3-6.9,7-6.4,11.8c0.3,1.8,0.8,3.6,1.4,5.4
		c1.1,3.8,1.6,7.8,1.5,11.8c0,0.3,0,0.5-0.2,0.8c-0.3,0.4-0.7,0.6-1.2,0.6c-1.2,0.1-2.4-0.1-3.5-0.6c1.6,1.6,3.8,2.4,6,2.4
		c0.6,0.1,1.2-0.4,1.3-1c0-0.1,0-0.2,0-0.3c0.1-4-0.4-7.9-1.5-11.8c-0.6-1.8-1.1-3.6-1.4-5.4c-0.5-4.9,2.1-9.6,6.4-11.8
		c4.8-2.4,10.9-1.4,15.5-4.2c3.6-2.2,5.5-6.2,7.3-10c1.9-4.1,3-7.7,7-10.1C508.04,572.8,508.54,568.8,506.54,564.8L506.54,564.8z"/>
	<path id="svg_65" class="st0" d="M791.44,690.4c-13.8-0.3-25.9-10-32.8-21.9c-1.8-2.8-2.9-6-3.3-9.4c0-0.8,0.2-1.5,0.4-2.2
		c0.4-1.1,0.8-2.3,1-3.4c0.1-0.5,0.1-0.9,0-1.4c0,0,0,0,0-0.1c0.3-2.5-1.2-5-3-6.7s-4.2-3-6.1-4.7c-5.9-5.2-7.7-13.5-7.8-21.5v-0.4
		c0.1-3.4,0.3-6.8,0.3-10.2c0-1.9,0-3.9-0.3-5.8c-0.6-4.8-2.4-9.7-6.2-12.8c-9.9-8-26.4,0.3-36.7-7.2c-2.5-1.9-4.5-4.6-7.5-5.3
		c-2.3-0.6-4.6,0.2-6.8,0.9c-7.5,2.5-15.9,5.7-18.8,13c-1.7,4.2-1.2,8.9-2.8,13.1c-1,2.8-2.9,5.3-4.3,7.9c-1.1,2-1.7,4.3-1.6,6.6
		c-0.1,1.2,0,2.4,0.5,3.5c0.5,1.4,1.4,2.6,2.5,3.5c-0.4,0.8-0.9,1.6-1.5,2.3c-1.9,2.4-4.9,4-6.9,6.3c-3.7,4.3-3.6,10.1-1.7,15.2
		s5.1,9.6,7.4,14.5c1,2.1,1.8,4.5,0.8,6.6c-0.7,1.5-2.2,2.6-3.3,3.9c-1.7,1.9-2.7,4.2-3,6.7c-22.5,5.1-22.5,23.2-22.5,23.2l0,0
		l-12.2,30.6c0,0-2,5.1-4.2,12l-14.4-2.6l10,16.7c-1.9,6.8-3.2,13.1-2.8,16.3c0,0-4.5,21,3.5,24.7l17.5,7.9c0.8,0.5,1.6,0.8,2.4,1.1
		l0.7,0.3c0.5,0.3,1.1,0.3,1.6,0l0,0h0.2c0.3,0,0.7,0,1-0.1c0.4-0.2,0.7-0.5,0.9-1v-0.1l5.3-1.5l4.5,5.3c2,1.4,4,2.6,5.9,3.7
		l-6.9,68.4c0,0-1.1,91-4.5,111.7c-1.2,7.7-1.3,12.9-0.8,16.5l-0.1,0.2c0.8,5.8,3,7,3,7v-0.1l0.1,0.1c1-2.7,2.2-5.2,3.6-7.7
		c0,0.5,0,1,0,1.5c-0.1,7.7-0.3,18.5-1.1,25.6c-1.4,12,3.5,51.5,3.5,51.5l1.7,36c0.3,6.1-1.1,12.2-4.1,17.5
		c-4,7.2-9.1,17.3-9.5,21.8c0,0.2,0,0.5,0,0.7l0,0l-8.6,10.3c0,0-3.3,5.2,4.2,7.3c4.1,1.1,11.1,0,16.7-1.3c5.1-1.2,8.7-5.7,8.7-10.9
		c1.4-5,3.8-9.6,7.1-13.6l1.4,8.3l9.4,2.3l1.2-22.7c0.5-1.3,0.7-2.6,0.7-4l0,0c1.9-16.2-4.4-14.7-4.4-14.7c0.2,0.1,0.3,0.3,0.3,0.6
		l-0.3-0.5l0,0c-3.8-7.6-2-20-2-20s5-36,6.7-45.5c1.2-6.7,0.7-28.7,0.3-41c0-0.5,0-1,0-1.5c14.6-0.2,32.6-0.7,45.2-1.9v1.5l-2.3,85
		c-0.2,5.4-1.3,10.8-3.3,15.8c0,0.1-0.1,0.2-0.1,0.3c-2.8,7.1-4.3,14.7-4.6,22.3l-1.1,27v0.8l0,0c-1.9,0.7-4.8,2.8-4.9,8.9
		c-0.1,8.9,15.5,5.9,15.5,5.9c15.6,0,15.8-16.3,15.8-16.3s0.5-14.9,1.2-24.9s-2.4-7.8-2.4-7.8l-0.2,28.4c0,0.1,0,0.1,0,0.2v-24.7
		l0.2-3.6v-0.1l0,0v-0.8l2-29.3c0,0,14.4-48.8,16.6-58.2c1.6-6.7,0.9-26.7,0.4-37.8c0-0.5,0-1-0.1-1.5c4.5-0.4,8.4-0.4,10-0.4h0.7
		c0,0-0.7-78.4-2.6-108s-4.8-56.6-12.3-64.8c-4.5-4.9-10.8-20.1-15-31.4c8.9,3.8,18.1,6.9,27.6,9c23.6,4.9,20.4-15.5,20.4-15.5
		l-2.4-38.7h0.2c-0.1-10.1-1-20.3-2.6-30.3c-1.3-7.7-3.2-15.6-6.1-22c2.6-1,5.1-2.1,7.6-3.2c6.4-2.8,13.6-6.8,14.5-13.8h-0.3
		C791.34,691.5,791.44,690.9,791.44,690.4L791.44,690.4z M645.24,746.4L645.24,746.4c0,4-0.1,10.9-0.3,18.6l-7.5-10l7.5-12.2
		L645.24,746.4L645.24,746.4z M748.74,781.9l-12.5-4c2.2-3.5,4.8-6.7,7.7-9.5l1.1-1l-0.4,0.1l0.6-0.5l0.4-0.1l-0.6,0.5l0.7-0.1
		c0.8,3.1,2.2,6.1,4.3,8.5C754.44,780.6,748.74,781.9,748.74,781.9L748.74,781.9z"/>
	<polygon id="svg_66" class="st18" points="672.94,1141.9 671.44,1169.5 662.14,1167.2 660.14,1155.7 	"/>
	<polygon id="svg_67" class="st13" points="672.94,1141.9 671.44,1169.5 662.14,1167.2 660.14,1155.7 	"/>
	<path id="svg_68" class="st19" d="M707.04,1173.2l14.2,2.9l10.5-9.3v-26.2l0.2-3.6v-0.1l0,0v-0.7l2-29.1c0,0,14.2-48.5,16.4-57.8
		c1.6-6.6,0.9-26.5,0.4-37.5c-0.2-4.5-0.4-7.5-0.4-7.5l-31.3-7.6l-0.7,24.1l-2.3,84.4c-0.2,5.4-1.2,10.7-3.2,15.7l-0.1,0.3
		c-2.7,7.1-4.3,14.5-4.5,22.1l-1.1,26.8v0.7L707.04,1173.2L707.04,1173.2z"/>
	<path id="svg_69" class="st13" d="M732.04,1136.2v0.7l0,0V1136.2L732.04,1136.2z"/>
	<path id="svg_70" class="st13" d="M707.04,1173.2l14.2,2.9l10.5-9.3v-2.2c-0.1,1-0.6,1.9-1.5,2.4l-0.2,0.1
		c-4.9,2.6-10.4,3.7-15.9,3.2l-5.5-0.5c-0.5,0-1,0.2-1.5,0.4v0.7L707.04,1173.2z"/>
	<path id="svg_71" class="st12" d="M730.14,1167.8l0.2-0.1c0.9-0.5,1.5-1.5,1.5-2.6l0.2-28.2c0,0,3.1-2.2,2.3,7.7
		s-1.2,24.7-1.2,24.7s-0.1,16.2-15.5,16.2c0,0-15.4,2.9-15.3-5.9s6.4-9.2,6.4-9.2l5.5,0.5
		C719.74,1171.5,725.24,1170.4,730.14,1167.8L730.14,1167.8z"/>
	<path id="svg_72" class="st19" d="M633.14,1167.2c0.4,6.4,19.1,2.7,19.1,2.7l12.6-24.5c0,0,10.5-8.1,5.3-15.2
		c-0.3-0.4-0.5-0.8-0.8-1.2c0,0,0,0,0-0.1l0,0c-0.1-0.2-0.2-0.4-0.3-0.6l0,0c-3.8-7.5-1.9-19.8-1.9-19.8s4.9-35.8,6.6-45.2
		c1.2-6.7,0.7-28.5,0.3-40.7c-0.2-5.1-0.3-8.5-0.3-8.5l-31.1-8.3c0,0,0,3.9,0,9.3c-0.1,7.7-0.3,18.4-1.1,25.4
		c-1.3,11.9,3.4,51.2,3.4,51.2l1.7,35.8c0.3,6.1-1.1,12.1-4,17.4c-3.9,7.1-9,17.2-9.3,21.7C633.14,1166.7,633.14,1167,633.14,1167.2
		z"/>
	<path id="svg_73" class="st13" d="M633.14,1167.2c0.4,6.4,19.1,2.7,19.1,2.7l12.6-24.5c0,0,10.5-8.1,5.3-15.2
		c-0.3-0.4-0.5-0.8-0.8-1.2c-0.2,3.7-4.2,13-4.2,13s-10.4,20.8-13.7,25.6s-17.7-0.9-18.2-1.1
		C633.04,1166.8,633.04,1167,633.14,1167.2L633.14,1167.2z"/>
	<path id="svg_74" class="st12" d="M668.94,1128.4c0,0,6.2-1.4,4.3,14.6l0,0c0.1,3.7-1.7,7.2-4.9,9.2c-4.4,2.8-11.2,8.7-14.7,20.3
		l0,0c0,5.1-3.5,9.6-8.5,10.8c-5.6,1.3-12.5,2.4-16.5,1.3c-7.5-2.1-4.2-7.2-4.2-7.2l8.6-10.2c0,0,14.9,5.9,18.2,1.1
		s13.7-25.6,13.7-25.6S670.74,1129.7,668.94,1128.4L668.94,1128.4z"/>
	<path id="svg_75" class="st13" d="M719.04,999.6l-0.7,24.1c8.3-0.8,14.3-1.9,15.3-3.5c2.2-3.4,10.2-4.9,17-5.5
		c-0.2-4.5-0.4-7.5-0.4-7.5L719.04,999.6L719.04,999.6z"/>
	<path id="svg_76" class="st13" d="M642.54,1018.1c0.8-1.6,2-3.1,3.4-4.1c3.3-1.8,2.9,11.8,2.9,11.8s11,0.1,25-0.1
		c-0.2-5.1-0.3-8.5-0.3-8.5l-31.1-8.3C642.54,1008.8,642.54,1012.6,642.54,1018.1L642.54,1018.1z"/>
	<path id="svg_77" class="st11" d="M638.94,1021.3c0,0,3.7-10,7-11.8s2.9,11.8,2.9,11.8s80.8,0.7,84.9-5.5s27.5-5.9,27.5-5.9
		s-0.7-77.9-2.6-107.3s-4.8-56.2-12.1-64.3c-4.8-5.2-11.5-22.2-15.7-33.4c-2.3-6.2-3.8-10.7-3.8-10.7l-77.1,4.4l-0.6,6.3l-8.2,81.9
		c0,0-1.1,90.4-4.4,110.9S638.94,1021.3,638.94,1021.3L638.94,1021.3z"/>
	<g id="svg_78" class="st20">
		<path id="svg_79" d="M727.54,1015.7c4-6.2,27.5-5.9,27.5-5.9s-0.7-77.9-2.6-107.3s-4.8-56.2-12.1-64.3
			c-4.8-5.3-11.5-22.1-15.7-33.4c-1.9-5.2-3.3-9.2-3.7-10.3l6-0.3c0,0,1.5,4.5,3.8,10.6c4.2,11.3,10.9,28.2,15.7,33.4
			c7.3,8.1,10.3,34.9,12.1,64.3s2.6,107.3,2.6,107.3s-23.5-0.4-27.6,5.9c-3.5,5.3-62.9,5.6-80.2,5.5
			C675.54,1021.2,724.34,1020.6,727.54,1015.7z"/>
		<path id="svg_80" d="M639.74,1009.5c1.5-0.8,2.2,1.5,2.6,4.3c-1.3,2.4-2.5,4.9-3.5,7.5c0,0-2.1-1.2-3-7
			C637.04,1012.2,638.44,1010.2,639.74,1009.5z"/>
	</g>
	<path id="svg_81" class="st16" d="M662.84,605.8c-5.3,7.3,0.1,17.6-5.7,24.7c-1.9,2.3-4.8,4-6.8,6.3c-3.7,4.3-3.5,10.1-1.7,15.1
		s5,9.6,7.3,14.4c1,2.1,1.7,4.5,0.7,6.6c-0.7,1.5-2.2,2.6-3.3,3.8c-3.7,4.1-3.8,9.8-1.8,14.7c2,4.8,5.8,9,9.5,13.1
		c1.5,1.6,3.3,3.4,5.8,3.3c1.3-0.1,2.5-0.5,3.6-1.2c17.6-9,25-30.3,16.8-48.3c-3.1-7.4-8.3-14.6-8.3-22.4c0-6.2,3.2-12.2,3.8-18.4
		c0.7-7.5-3.8-19.5-12.9-22.8C670.54,599.6,665.54,602.1,662.84,605.8L662.84,605.8z"/>
	<path id="svg_82" class="st13" d="M662.84,605.8c-5.3,7.3,0.1,17.6-5.7,24.7c-1.9,2.3-4.8,4-6.8,6.3c-3.7,4.3-3.5,10.1-1.7,15.1
		s5,9.6,7.3,14.4c1,2.1,1.7,4.5,0.7,6.6c-0.7,1.5-2.2,2.6-3.3,3.8c-3.7,4.1-3.8,9.8-1.8,14.7c2,4.8,5.8,9,9.5,13.1
		c1.5,1.6,3.3,3.4,5.8,3.3c1.3-0.1,2.5-0.5,3.6-1.2c17.6-9,25-30.3,16.8-48.3c-3.1-7.4-8.3-14.6-8.3-22.4c0-6.2,3.2-12.2,3.8-18.4
		c0.7-7.5-3.8-19.5-12.9-22.8C670.54,599.6,665.54,602.1,662.84,605.8L662.84,605.8z"/>
	<path id="svg_83" class="st13" d="M722.04,870.6c-10.7,0.6-20.8,5.2-30.1,10.4c-9.4,5.2-18.4,11.1-28.5,14.8"/>
	<path id="svg_84" class="st13" d="M715.44,895.8c-10.6,1-20.4,5.8-27.8,13.5c-2.6,2.8-4.8,5.8-7.5,8.5c-4.1,4-9.3,7-14.9,8.4"/>
	<path id="svg_85" class="st13" d="M717.54,915c-8.5,2.4-16.2,7-22.3,13.5c-1.6,1.8-3.1,3.7-4.8,5.4c-8.8,9.5-21.3,14.5-33.4,19.3"
		/>
	<path id="svg_86" class="st19" d="M716.64,649.1c0.2,8.5,1,17.1,2.2,25.5c1,6,2.4,11.4,4.4,13.8c5.9,7-28.7,16.4-28.7,16.4
		l-20.4-15.8c0,0,16.2-14.9,8.6-29.4S716.64,649.1,716.64,649.1z"/>
	<path id="svg_87" class="st13" d="M649.34,804.9h81.5c-2.3-6.2-3.8-10.6-3.8-10.6l-77.1,4.4L649.34,804.9L649.34,804.9z"/>
	<path id="svg_88" class="st14" d="M644.14,803.4h87.2c-2.5-8.8,0-16.9,3.5-23.1c2.4-4.4,5.5-8.4,9.1-11.8l0.6-0.5l30.4-6.7l1.6-0.4
		c0,0,0.3-55.3-19.3-63c-19.6-7.6-31.3-17.9-31.3-17.9l-26.9,8.3l-19.8-10c-6.4,6.9-23.3,4.2-23.3,4.2c-27.7,3.2-27.7,24-27.7,24
		s16.2,37.7,17.4,37.7S644.14,803.4,644.14,803.4z"/>
	<path id="svg_89" class="st13" d="M674.24,768.2c0,0-17.8-3.9-23.8-10.8"/>
	<path id="svg_90" class="st13" d="M763.84,747.6l-20.6,16.9c0.1,1.3,0.4,2.7,0.7,4l0.6-0.5l30.4-6.7L763.84,747.6L763.84,747.6z"/>
	<path id="svg_91" class="st13" d="M708.04,797.5c0,0,4.5,2.5,11.4,5.9h11.8c-2.5-8.8,0-16.9,3.5-23.1l-20.9-6.8
		C721.04,780.1,708.04,797.5,708.04,797.5L708.04,797.5z"/>
	<path id="svg_92" class="st14" d="M640.44,699.8l-12.2,6.6l-12,30.4c0,0-12.5,33.3-11.3,42.1c0,0-4.4,20.8,3.4,24.5l20.4,9.2
		c1,0.4,2.1,0,2.5-1c0.2-0.5,0.2-1.1-0.1-1.6c-2.9-5.5-6.1-14.1-1-18.9l-5.9-12.2l21.3-34.8l7.1-12L640.44,699.8z"/>
	<path id="svg_93" class="st13" d="M667.64,761.3c1.1,4.3,4.6,11,16.5,13.5l13,10.6l13.8,6.3l5.6,2.5l2.4-17.3l-5.4-3l-6.3-3.5
		c0,0-14.3-25.9-36.9-15C668.24,756.5,667.04,758.9,667.64,761.3L667.64,761.3z"/>
	<path id="svg_94" class="st19" d="M668.44,759.8c1.1,4.3,4.6,11,16.5,13.5l13,10.7l13.8,6.2l5.6,2.5l2.4-17.3l-5.4-3l-6.3-3.4
		c0,0-14.3-25.9-36.9-15C669.04,755.1,667.84,757.5,668.44,759.8L668.44,759.8z"/>
	<circle id="svg_95" class="st13" cx="693.94" cy="639.9" r="31.6"/>
	<circle id="svg_96" class="st19" cx="693.94" cy="639.2" r="31.6"/>
	<path id="svg_97" class="st13" d="M713.44,706.7l-9.5-18.5c0,0,13.9-5.6,14.9-12.1s13.3,7.6,10.7,12.3S713.44,706.7,713.44,706.7
		L713.44,706.7z"/>
	<path id="svg_98" class="st14" d="M713.44,705.2l-9.5-18.5c0,0,13.9-5.6,14.9-12.1s13.3,7.6,10.7,12.3S713.44,705.2,713.44,705.2
		L713.44,705.2z"/>
	<path id="svg_99" class="st21" d="M635.74,752.9l52.5,70.6c0,0-19.3,10.5-46-8.3l-11.5-13.7l-32.9-55.4L635.74,752.9L635.74,752.9z
		"/>
	<path id="svg_100" class="st19" d="M625.34,791.3l4.8-0.1c0,0,29.2-28.3,36.4-14s-18.2,27.7-18.2,27.7l-7.7,4.2l-10,3l-6.4-8.6
		L625.34,791.3L625.34,791.3z"/>
	<path id="svg_101" class="st13" d="M632.44,806.6c0.4,1.6,0.9,3.4,0.1,4.9c-0.2,0.4-0.5,0.7-0.9,1c-0.3,0.1-0.7,0.2-1,0.1
		c-2.5-0.2-4.9-1.4-6.6-3.3c-1.7-1.9-3.1-3.9-4.3-6.2c-1.3-2.3-2.7-4.8-2.2-7.4c0.5-2.8,3-4.8,5.4-6.3c4.8-3.2,5,0.5,6.1,4.7
		S631.34,802.4,632.44,806.6z"/>
	<path id="svg_102" class="st14" d="M631.74,806.6c0.4,1.6,0.9,3.4,0.1,4.9c-0.2,0.4-0.5,0.7-0.9,1c-0.3,0.1-0.7,0.2-1,0.1
		c-2.5-0.2-4.9-1.4-6.6-3.3c-1.7-1.9-3.1-3.9-4.3-6.2c-1.3-2.3-2.7-4.8-2.2-7.4c0.5-2.8,3-4.8,5.4-6.3c4.8-3.2,5,0.5,6.1,4.7
		S630.54,802.4,631.74,806.6z"/>
	<polygon id="svg_103" class="st13" points="645.54,744.1 648.04,740 645.94,747.7 	"/>
	<path id="svg_104" class="st13" d="M711.74,790.2l5.6,2.5l2.4-17.3l-5.4-3C718.14,776.8,714.84,784.7,711.74,790.2z"/>
	<path id="svg_105" class="st13" d="M734.34,770.2c0,0-18.2,1.1-25.9-3.9"/>
	<g id="svg_106" class="st20">
		<path id="svg_107" d="M732.14,781.8c2.4-4.4,5.5-8.4,9.1-11.8c0.9-0.5,1.8-1,2.7-1.5l28.3-5.8l1.6-0.4c0,0,0.3-55.3-19.3-63
			c-11-4.2-21.3-10-30.6-17.2l2.2-0.7c0,0,11.8,10.3,31.3,17.9c19.6,7.6,19.3,63,19.3,63h-2.9l-29,5.5c0,0-1.3,1.2-1.6,1.6
			c-3.6,3.6-6.8,7.8-9.3,12.3c-3.8,7.1-4.7,15.5-2.4,23.2h-3C726.14,796.1,728.64,788,732.14,781.8L732.14,781.8z"/>
		<path id="svg_108" d="M654.74,684.1c0.5-0.1,0.9-0.1,1.4-0.2c2,0.3,4,0.4,6,0.5C659.64,684.4,657.14,684.3,654.74,684.1z"/>
		<path id="svg_109" d="M696.24,689.8l-17.9-9.1c0.4-0.3,0.7-0.6,1-1l18.7,9.5L696.24,689.8z"/>
	</g>
	<path id="svg_110" class="st14" d="M764.54,746.1l12,14.7l2.5,39.9c0,0,3.2,20.3-20.1,15.4c-23.3-4.9-50.2-20-50.2-20
		s13-17.4,5.9-24l33.3,10.8c0,0,5.6-1.2,1.2-6.1c-4.4-4.9-5.2-13.7-5.2-13.7L764.54,746.1L764.54,746.1z"/>
	<path id="svg_111" class="st13" d="M770.04,788.2l6.6,7.6C773.14,794.8,770.54,791.8,770.04,788.2z"/>
	<polygon id="svg_112" class="st13" points="758.74,787 769.04,800.2 763.84,801.5 	"/>
	<path id="svg_113" class="st13" d="M656.14,624.7c-1.1-2.8-0.3-6,1.1-8.6s3.2-5.1,4.3-7.9c1.5-4.2,1-8.9,2.7-13
		c2.9-7.3,11.2-10.5,18.6-13c2.2-0.7,4.5-1.5,6.8-0.9c3,0.7,5,3.4,7.4,5.3c10.1,7.5,26.4-0.8,36.2,7.2c3.7,3,5.5,7.9,6.1,12.7
		s0,9.6-0.1,14.4c-0.2,8.4,1.4,17.6,7.7,23.2c1.9,1.7,4.1,2.9,6,4.7s3.3,4.2,3,6.7c-0.2,1.2-0.6,2.3-1,3.4c-1.3,4.4,0.6,9,2.9,13
		c6.8,11.8,18.8,21.5,32.4,21.7c-0.9,6.9-8,10.8-14.3,13.7c-8,3.6-16.5,7.1-25.3,6.7c-8.8-0.4-18-6.1-19.5-14.8
		c-0.5-3-0.5-6.6-3-8.2c-1.6-1-3.6-0.7-5.3-1.4c-2.4-1-3.6-3.7-4.4-6.2c-1.6-5.2-2.5-10.6-2.6-16c-0.1-6.4,0.7-13.5-2.9-18.8
		c-3.4-4.9-9.4-7.4-13.3-11.9c-3.6-4.2-7.5-9.2-13.4-10C677.84,625.4,660.94,636.5,656.14,624.7L656.14,624.7z"/>
	<path id="svg_114" class="st16" d="M656.14,623.2c-1.1-2.8-0.3-6,1.1-8.6s3.2-5.1,4.3-7.9c1.5-4.2,1-8.9,2.7-13
		c2.9-7.3,11.2-10.5,18.6-13c2.2-0.7,4.5-1.5,6.8-0.9c3,0.7,5,3.4,7.4,5.3c10.1,7.5,26.4-0.8,36.2,7.2c3.7,3,5.5,7.9,6.1,12.7
		s0,9.6-0.1,14.4c-0.2,8.4,1.4,17.6,7.7,23.2c1.9,1.7,4.1,2.9,6,4.7s3.3,4.2,3,6.7c-0.2,1.2-0.6,2.3-1,3.4c-1.3,4.4,0.6,9,2.9,13
		c6.8,11.7,18.8,21.5,32.3,21.7c-0.9,6.9-8,10.8-14.3,13.7c-8,3.6-16.5,7.1-25.3,6.6s-18-6.1-19.5-14.8c-0.5-3-0.5-6.6-3-8.2
		c-1.6-1-3.6-0.7-5.3-1.4c-2.4-1-3.6-3.7-4.4-6.2c-1.6-5.2-2.5-10.6-2.6-16c-0.1-6.4,0.7-13.5-2.9-18.8c-3.4-4.9-9.4-7.4-13.3-11.9
		c-3.6-4.2-7.5-9.2-13.4-10C677.84,624,660.94,635.1,656.14,623.2z"/>
	<path id="svg_115" class="st13" d="M678.54,704.4l18.1-14.7c0,0-12.4-6.7-13.9-12.5c-1.5-5.7-11.4,2.7-10.4,7.9
		C673.44,690.3,678.54,704.4,678.54,704.4L678.54,704.4z"/>
	<path id="svg_116" class="st14" d="M679.34,702.2l18.1-14.7c0,0-12.4-6.7-13.8-12.4s-11.4,2.7-10.4,7.9
		C674.24,688.1,679.34,702.2,679.34,702.2L679.34,702.2z"/>
	<circle id="svg_117" class="st13" cx="698.14" cy="699.8" r="1.4"/>
	<circle id="svg_118" class="st13" cx="698.14" cy="707.8" r="1.4"/>
	<circle id="svg_119" class="st13" cx="698.14" cy="715.8" r="1.4"/>
	<g id="svg_120" class="st20">
		<path id="svg_121" d="M663.44,602.8c1.4-3.9,1.1-8.3,2.5-12.3c-0.6,0.9-1.1,1.8-1.5,2.8c-1.7,4.1-1.2,8.9-2.7,13l-0.1,0.2
			C662.34,605.4,662.94,604.1,663.44,602.8z"/>
		<path id="svg_122" d="M777.74,701.8c-8,3.6-16.5,7.1-25.3,6.7s-18-6.1-19.5-14.8c-0.5-3-0.5-6.6-3-8.2c-1.6-1-3.6-0.7-5.3-1.4
			c-2.4-1-3.6-3.7-4.4-6.2c-1.6-5.2-2.5-10.6-2.6-16c-0.1-6.4,0.8-13.5-2.9-18.8c-3.4-4.9-9.4-7.4-13.3-11.9
			c-3.6-4.2-7.5-9.2-13.4-10c-8.1-1.1-25,10-29.8-1.8c-0.8-2.2-0.7-4.7,0.3-6.8c-0.3,0.6-0.7,1.2-1,1.8c-1.4,2.7-2.2,5.9-1.1,8.6
			c4.8,11.8,21.7,0.7,29.8,1.8c5.9,0.8,9.8,5.9,13.4,10c3.9,4.5,9.9,7,13.3,11.9c3.7,5.3,2.8,12.3,2.9,18.8c0.1,5.4,1,10.8,2.6,16
			c0.8,2.5,2,5.2,4.4,6.2c1.7,0.7,3.7,0.5,5.3,1.4c2.6,1.6,2.5,5.2,3,8.2c1.6,8.7,10.7,14.3,19.5,14.8s17.3-3.1,25.3-6.6
			c5.8-2.6,12.3-6.2,14-12C787.14,697.2,782.24,699.8,777.74,701.8z"/>
	</g>
	<path id="svg_123" class="st0" d="M954.44,758.2c-21.2-12.2-29.2-15.2-29.2-15.2l-0.4-0.3c-2.3-1.8-4.1-4.1-5.3-6.7
		c0-0.5,0-1,0-1.5v0.1c0.3-6.5,4.9-12.3,9.3-17.4l11.1-13.1c1.3-1.3,2.2-2.8,2.9-4.5c0.2-0.9,0.3-1.9,0.3-2.8c0-0.4,0-0.8,0-1.1
		c-0.1-3.3-0.2-6.5-0.3-9.8c-0.1-2.8-0.8-6.4-3.7-7c-1.5-0.3-3.4,0.2-4.2-1c-0.3-0.5-0.3-1.1-0.2-1.7v0.1v-0.1
		c0.6-2.2,0.9-4.4,1-6.7c0.1-1.1-0.1-2.3-0.5-3.4c-1.6-4.7-7.3-6.6-12.3-7.5s-10.6-1.6-13.8-5.6c-0.8-1.3-1.8-2.6-2.7-3.8
		c-1.4-1.3-3.2-2.2-5.1-2.5c-6.2-1.5-12.8-1-18.6,1.6c-2.4,1.1-4.8,2.5-7.5,2.4s-5.1-2.1-7.8-2.5c-4.4-0.8-8.6,2.5-10.8,6.3
		c-1.3,2.3-2,4.8-2,7.4v0.4l0,0c-0.1,2.8,1,5.5,2.9,7.6c1.9,2,4.7,3.3,5.5,5.9c0.3,1,0.2,2.2,0.5,3.3c0,0.1,0.1,0.3,0.1,0.4
		l-0.1,0.2c-4.5,5.8-7,13-7,20.3c0.1,14.7,9.7,27.6,23.7,32c0,0.3,0,0.7,0,1c0,4-1.2,8.2-4.6,11.2l-30,12c0,0-18.1-2.1-24.6,24.3
		c-1,4.4-1.4,8.9-1.1,13.4c0.2,4-0.3,11-5,20.1c-7.4,14.5-5.7,47.9,9.4,51.2c14.3,3.1,19.9,1.8,20.5,1.7v0.6
		c-0.2,6.3-2.5,60.2-10.8,66.7c-2.3,1.8-1.9,3,0,3.8c0,0,0,0.3,0,1c-0.3,4-1.5,19-7,27.5c-6.4,9.9-5.7,67-5.7,67l-4.4,33.7
		c0,0,2.7,20.8,0,24.4c-2.4,3.2-5.6,80.1-6.3,96.8h-0.3c-2.7,0.2-5.1,1.7-6.5,4c-3.5,5.8-15.9,16.4-15.9,16.4
		c-2.7,3.8-12.6,7.5-17.9,9.2c-0.7,0.2-1.4,0.5-2,0.9c-2,1.1-3.6,2.7-4.5,4.8c-0.7,1.2-0.9,2.7-0.5,4c1.3,3.3,29.3,5.6,36.4,2.3
		c5.6-2.6,27.6-6,36.8-7.3c3.4-0.4,6.1-3.1,6.5-6.5c0.2-1.2-0.1-2.3-0.8-3.3l0,0c-1.8-2.2-2.6-8.1-3-12c0.7-0.3,1.4-0.7,2.1-1.2
		c-0.8-12,0.9-24,5-35.3c6.7-17.8,8.8-50.8,7.1-72.3c0,0,20.5-88.4,36.7-96.7l0,0c0.3,0.3,8.1,10.4,9.1,41.6
		c1,31.7,12.5,52.5,12.5,52.5s-5.1,53.8,0,73.9l-6.6,31.8c-0.5-0.4-0.8-0.7-0.8-0.7s0.2,0.9,0.5,2.3l-0.1,0.7l0.3,0.1
		c0.8,4,1.9,10.9,1.4,15c-0.3,2.3-0.9,5.5-1.3,8.6c-0.7,4.9-0.9,9.6,1.7,10.7c4.2,1.7,29,4,33.2-1.4c1.9-2.3,2.4-5.4,1.2-8.2
		c-0.3-0.7-0.7-1.5-1.2-2.1c0,0-6.6-10.8-4.7-18.3c0.3-1.5,0.1-3.1-0.8-4.3c0.3-3.7,1.8-20.9,5.7-35.6c4.2-15.9,13.1-50.7,6.6-73.6
		l0,0c-0.2-0.9-0.5-1.8-0.8-2.6c-3.8-12.5-5-25.6-3.7-38.6c-2.4-11.1-2.4-22.6,0-33.7c4-18.5,6.9-36.6,6.9-36.6s2.2-24.4,0.3-39.4
		c0-0.3-0.1-0.6-0.1-1l1.1-0.2c0,0-5.7-25.4-7.8-41.6c-0.5-3.8-1.1-8.6-1.8-13.8c1.9-0.3,3.7-0.8,5.5-1.4c18.2-6.3,23.9-63,23.9-63
		v-18C969.54,798.1,975.64,770.5,954.44,758.2L954.44,758.2z M818.94,1196.5c-0.6-0.3-0.9-0.5-0.9-0.5l0,0L818.94,1196.5z"/>
	<path id="svg_124" class="st22" d="M943.44,1085.8c7.9,22.7-1.3,59.5-5.6,76s-5.6,36.2-5.6,36.2c-16.8,2.6-28.9-0.7-28.9-0.7
		l6.9-33.9c-4.9-20.1,0-73.7,0-73.7s-11.2-20.7-12.2-52.3c-1-31.1-8.6-41.1-8.9-41.4l0,0c-15.8,8.2-35.8,96.4-35.8,96.4
		c1.6,21.4-0.3,54.3-6.9,72c-4,11.3-5.7,23.2-4.9,35.2c-2.3,2-5.5,2.3-9,1.7c-9.4-1.5-20.7-9.6-20.7-9.6s3.6-96,6.3-99.6
		s0-24.3,0-24.3l4.3-33.5c0,0-0.7-56.9,5.6-66.8c5.4-8.5,6.6-23.5,6.9-27.4c0-0.6,0-1,0-1l9.5-11.4c0,0,92.1-6.9,99,0
		c1.7,1.7,2.7,5.5,3.4,10.4c1.9,14.9-0.3,39.3-0.3,39.3s-2.8,18.1-6.7,36.5c-2.4,11.1-2.4,22.5,0,33.5
		C938.54,1060.2,939.74,1073.3,943.44,1085.8L943.44,1085.8z"/>
	<path id="svg_125" class="st18" d="M937.74,1230c-4.1,5.4-28.3,3.1-32.4,1.4c-2.5-1-2.3-5.8-1.6-10.6c0.4-3.1,1.1-6.3,1.3-8.5
		c0.7-5.9-2-17.9-2-17.9s5.4,5.8,6.7,0c0.6-2.5,2.6-3.8,4.7-4.5c2.8-0.9,5.8-0.7,8.5,0.5c4.3,1.9,11.4,5.8,10.1,11.2
		c-1.8,7.5,4.6,18.3,4.6,18.3c0.5,0.6,0.9,1.3,1.2,2.1C940.04,1224.6,939.64,1227.7,937.74,1230z"/>
	<path id="svg_126" class="st13" d="M937.74,1230c-4.1,5.4-28.3,3.1-32.4,1.4c-2.5-1-2.3-5.8-1.6-10.6c2.6,1.2,7,2.2,14.4,1.5
		c1.7-0.2,3.4-0.2,5.2-0.2c5.2,0.2,10.5,0.1,15.7-0.3C940.04,1224.6,939.64,1227.7,937.74,1230L937.74,1230z"/>
	<path id="svg_127" class="st13" d="M853.34,1092.3c1.6,21.4-0.3,54.3-6.9,72c-4,11.3-5.7,23.2-4.9,35.2c-2.3,2-5.5,2.3-9,1.7
		c2-13.9,10.4-73.6,15.8-120.8c6.2-53.8,35-90.8,35-90.8l5.8,6.3C873.44,1004.2,853.34,1092.3,853.34,1092.3L853.34,1092.3z"/>
	<path id="svg_128" class="st23" d="M927.84,746.7l-4,19.7l-19.7,33l-24.3-10.4c0,0-33-34.5-12.3-39.5c2.5-0.5,4.8-1.6,6.9-3.1
		c4.1-3.1,5.3-7.5,5.4-11.9c-0.2-4.9-1.3-9.7-3.3-14.1l42.4-13.3c-1.7,5.6-2.7,11.3-3,17.2c-0.3,11.6,4,17.3,7.5,20
		C924.74,745.5,926.24,746.2,927.84,746.7L927.84,746.7z"/>
	<path id="svg_129" class="st13" d="M918.94,707.2c-1.7,5.6-2.7,11.3-3,17.2c-0.8,0.9-1.6,1.8-2.5,2.6c-8.9,8.5-21.8,11.5-33.5,7.7
		c-0.2-4.9-1.3-9.7-3.4-14.1L918.94,707.2z"/>
	<path id="svg_130" class="st23" d="M923.84,701.8c0,18.5-15,33.6-33.5,33.6s-33.6-15-33.6-33.5s15-33.6,33.5-33.6l0,0
		c18.4-0.1,33.5,14.8,33.5,33.2C923.84,701.6,923.84,701.7,923.84,701.8z"/>
	<path id="svg_131" class="st13" d="M927.84,746.7l-4,19.7l-19.7,33l-24.3-10.4c0,0-33-34.5-12.3-39.5c2.5-0.5,4.8-1.6,6.9-3.1
		c-3.7,10.3,11.7,31.7,11.7,31.7c1.8,2.7,5.9,1,5.9,1c10-1.5,28.3-30.1,31.3-34.9C924.74,745.5,926.24,746.2,927.84,746.7
		L927.84,746.7z"/>
	<path id="svg_132" class="st13" d="M946.84,938c-5.8,1.3-38.2,8.5-50.4,6.7c-13.5-2-39.7-3.3-39.7-3.3s-16.7,0.9-21.8-1.5
		c0-0.6,0-1,0-1l9.5-11.4c0,0,92.1-6.9,99,0C945.14,929.3,946.24,933.1,946.84,938z"/>
	<path id="svg_133" class="st14" d="M886.24,779.3c0,0-17.3-24-10.8-33.4l-29.3,12c0,0-17.6-2.1-24,24.2c-1,4.4-1.4,8.9-1.1,13.4
		c0.2,4-0.3,11-4.8,20c-7.2,14.5-5.6,47.7,9.2,51s20.1,1.6,20.1,1.6s-2,60.2-10.5,67.1s21.8,5.3,21.8,5.3s26.2,1.3,39.7,3.3
		s51.3-6.9,51.3-6.9s-5.6-25.3-7.6-41.4s-6.6-50.4-6.6-50.4l33.5-45.4c0,0,5.9-27.5-14.8-39.6c-20.7-12.2-28.5-15.1-28.5-15.1
		s-20.8,33.9-31.7,35.5C892.14,780.2,888.04,781.9,886.24,779.3L886.24,779.3z"/>
	<path id="svg_134" class="st13" d="M847.74,788.8c0,0-0.3,10.9,1.7,15.1s9.2,28,9.2,28h-16.5c0,0,8.9-9.5,8.2-14.1
		S847.74,788.8,847.74,788.8L847.74,788.8z"/>
	<path id="svg_135" class="st23" d="M896.44,870.7c0,0-36.3-8.9-39.7-16.4s-12.7-24.5-12.7-24.5l3.8-5.2l17.7,13.9
		c0,0,21,16.8,30.9,18.4S896.44,870.7,896.44,870.7z"/>
	<path id="svg_136" class="st24" d="M896.44,870.7c0,0-36.3-8.9-39.7-16.4s-12.7-24.5-12.7-24.5l3.8-5.2l17.7,13.9
		c0,0,21,16.8,30.9,18.4S896.44,870.7,896.44,870.7z"/>
	<path id="svg_137" class="st23" d="M927.84,827.9v19.7h-3.2c-15.6,0-31,4-44.7,11.6l-5.9,3.3l-1.6,0.9l-10.2-23l9.5-8.5h0.5
		c2.3,0.2,12.4,1.1,16.7-0.4c4.1-1.4,9.1-5.8,21.1-2.7c5.9,1.5,10.9,8.1,16.6,6L927.84,827.9L927.84,827.9z"/>
	<path id="svg_138" class="st13" d="M959.54,792.1l6.6,7.4v17.9c0,0-5.6,56.6-23.3,62.8s-49.5-3.6-49.5-3.6s-8.2-21.7-4.4-23
		s33.8-9.2,33.8-9.2s-0.4-33.2,6.2-43c0,0-4.3-30.9,10.5-31.6C954.34,769.1,959.54,792.1,959.54,792.1L959.54,792.1z"/>
	<path id="svg_139" class="st14" d="M960.54,792.1l6.6,7.4v17.9c0,0-5.6,56.6-23.3,62.8s-49.5-3.6-49.5-3.6s-8.2-21.7-4.3-23
		s33.8-9.2,33.8-9.2s-0.4-33.2,6.2-43c0,0-4.3-30.9,10.5-31.6C955.34,769.1,960.54,792.1,960.54,792.1L960.54,792.1z"/>
	<path id="svg_140" class="st13" d="M914.64,716.1c0.3-2.2,0-4.4-0.8-6.4c-0.9-2-3.1-3.5-5.2-3c-2.8,0.7-4,4.3-6.8,5.2
		c-2.3,0.7-4.9-0.9-6-3.1s-1.1-4.7-1.1-7.2c0-2.7,0-5.5,0-8.2c0-3-0.1-6.2-1.9-8.6c-2.3-2.9-7.7-4.2-11.3-4.1c-2.4,0-4.7,1-6.4,2.6
		c-1.9,1.6-4.2,2.8-6.8,2.4c-2.2-0.3-4.1-1.9-4.7-4.1v-0.1c11.1-14.8,32.2-17.8,47-6.6c14.8,11.1,17.8,32.2,6.6,47
		c-1.1,1.5-2.4,2.9-3.7,4.2C914.04,722.8,914.44,719.4,914.64,716.1L914.64,716.1z"/>
	<path id="svg_141" class="st25" d="M868.34,684.7c-2.2-0.3-4.1-1.9-4.7-4.1c-0.3-1.1-0.2-2.2-0.5-3.2c-0.8-2.6-3.5-3.9-5.4-5.9
		c-3.7-3.9-3.5-10.4-0.8-15.1c2.1-3.8,6.2-7,10.5-6.3c2.7,0.5,5,2.4,7.7,2.5s5-1.3,7.3-2.4c5.7-2.6,12.1-3.2,18.2-1.6
		c1.9,0.4,3.6,1.2,5,2.5c1,1.2,1.8,2.5,2.7,3.8c3.1,3.9,8.5,4.7,13.4,5.6s10.4,2.8,12,7.5c1.1,3.1,0,6.5-0.6,9.7
		c-0.2,0.7-0.1,1.4,0.1,2c0.8,1.3,2.7,0.7,4.1,1c2.8,0.6,3.5,4.2,3.6,7c0.1,3.2,0.2,6.5,0.3,9.7c0.1,1.2,0,2.4-0.3,3.6
		c-0.6,1.7-1.6,3.2-2.8,4.5l-10.9,13c-4.8,5.8-9.9,12.5-9,20c-2.3,1-5-1-5.7-3.3c-0.7-2.4-0.2-5,0.4-7.4c0.9-4.2,1.5-8.5,1.7-12.9
		c0.3-2.2,0-4.4-0.8-6.4c-0.9-2-3.1-3.5-5.2-3c-2.8,0.7-4,4.3-6.8,5.2c-2.3,0.7-4.9-0.9-6-3.1s-1.1-4.7-1.1-7.1v-8.3
		c0-3-0.1-6.2-1.9-8.6c-2.3-2.9-7.7-4.2-11.3-4.1c-2.4,0-4.7,1-6.4,2.6C873.14,684,870.94,685.2,868.34,684.7z"/>
	<path id="svg_142" class="st13" d="M875.84,788l10.3,42.3C886.14,830.3,894.34,830.2,875.84,788z"/>
	<path id="svg_143" class="st13" d="M911.04,780.9c0,0-13.5,22.1-8.2,44.9l2.5,0.2C905.34,826,900.84,815.4,911.04,780.9
		L911.04,780.9z"/>
	<path id="svg_144" class="st13" d="M919.54,905.9c0,0,16.6-5.5,17.8,7.2C937.34,913.1,934.24,904.4,919.54,905.9z"/>
	<path id="svg_145" class="st13" d="M871.74,832.9c0,0-3.3,23,2.6,32.2c0,0-12,4.9-28.9,4l-2-36.2H871.74L871.74,832.9z"/>
	<path id="svg_146" class="st13" d="M874.04,862.5l-1.6,0.9l-10.2-23l9.5-8.5h0.5l0,0C872.14,833,869.44,852.8,874.04,862.5z"/>
	<path id="svg_147" class="st14" d="M871.74,831.9c0,0-3.3,23,2.6,32.2c0,0-12,4.9-28.9,4l-11.5-36.2H871.74L871.74,831.9z"/>
	<path id="svg_148" class="st18" d="M843.34,1216c-0.4,3.4-3,6.1-6.4,6.5c-8.9,1.3-30.4,4.7-35.9,7.3c-6.9,3.3-34.2,1-35.5-2.3
		c-0.4-1.3-0.2-2.8,0.5-4c0.9-2,2.5-3.7,4.4-4.7c0.6-0.4,1.3-0.6,2-0.9c5.1-1.7,14.8-5.3,17.5-9.2c0,0,12.1-10.6,15.6-16.3
		c1.3-2.3,3.7-3.8,6.3-3.9c2.9-0.1,6.1,1.3,7.4,7.6c0,0,15.8,9,20,1.1c0,0,0.7,12.1,3.3,15.4l0,0
		C843.24,1213.6,843.54,1214.8,843.34,1216L843.34,1216z"/>
	<path id="svg_149" class="st13" d="M843.34,1216c-0.4,3.4-3,6.1-6.4,6.5c-8.9,1.3-30.4,4.7-35.9,7.3c-6.9,3.3-34.2,1-35.5-2.3
		c-0.4-1.3-0.2-2.8,0.5-4c0.9-2,2.5-3.7,4.4-4.7c4.5,3,14.3,5.8,36.1,2.5c20.7-3.2,31-6.4,36-8.6l0,0
		C843.24,1213.6,843.54,1214.8,843.34,1216L843.34,1216z"/>
	<g id="svg_150" class="st20">
		<path id="svg_151" d="M933.04,678.2V678c0.5-2.5,1.2-5,1-7.5c-0.2,2-0.5,4-1,6C932.94,677.1,932.94,677.7,933.04,678.2z"/>
		<path id="svg_152" d="M913.84,709c0.5,1.2,0.8,2.5,0.8,3.8c0.1-1.8-0.1-3.6-0.8-5.2c-0.9-2-3.1-3.5-5.2-3c-2.8,0.7-4,4.3-6.8,5.2
			c-2.3,0.7-4.9-0.9-6-3.1s-1.1-4.7-1.1-7.2c0-2.8,0-5.5,0-8.2c0-3-0.1-6.2-1.9-8.6c-2.3-2.9-7.7-4.2-11.3-4.1c-2.4,0-4.7,1-6.4,2.6
			c-1.9,1.6-4.2,2.8-6.8,2.4c-2.2-0.3-4.1-1.9-4.7-4.1c-0.3-1.1-0.2-2.2-0.5-3.3c-0.8-2.6-3.5-3.9-5.4-5.9c-1.7-1.9-2.7-4.4-2.8-7
			c-0.3,3.1,0.7,6.1,2.8,8.4c1.8,2,4.6,3.3,5.4,5.9c0.3,1,0.2,2.2,0.5,3.3c0.7,2.2,2.5,3.7,4.7,4.1c2.6,0.4,4.8-0.8,6.8-2.4
			c1.7-1.6,4-2.6,6.4-2.6c3.6-0.1,9,1.2,11.3,4.1c1.8,2.4,1.9,5.6,1.9,8.6c0,2.8,0,5.5,0,8.2c0,2.4,0,5,1.1,7.2
			c1.1,2.1,3.7,3.8,6,3.1c2.8-0.9,4-4.5,6.8-5.2C910.74,705.5,912.94,707.1,913.84,709z"/>
		<path id="svg_153" d="M940.94,699.9c-0.6,1.7-1.6,3.2-2.8,4.5l-10.9,13c-4.6,5.5-9.4,11.8-9,18.9c0.3-6.4,4.8-12.3,9-17.4l10.9-13
			c1.2-1.3,2.2-2.8,2.8-4.5c0.3-1.2,0.4-2.4,0.3-3.6C941.14,698.5,941.04,699.2,940.94,699.9z"/>
		<path id="svg_154" d="M912.54,734.2c-0.2-0.6-0.3-1.2-0.3-1.8c-0.1,1.1,0,2.2,0.3,3.2c0.7,2.4,3.5,4.4,5.7,3.3
			c-0.1-0.5-0.1-1-0.1-1.4C915.94,738.5,913.24,736.5,912.54,734.2L912.54,734.2z"/>
	</g>
	<path id="svg_155" class="st13" d="M803.24,1195.4c0,0,3.4,6,15.9,0.7"/>
	<path id="svg_156" class="st13" d="M908.54,1196.9c0,0,10.7,12.7,24.3,4.2"/>
	<path id="svg_157" class="st13" d="M939.84,1047.3c0,0-7.6,4.7-7.8,7.5s3.9-2,3.9-2L939.84,1047.3L939.84,1047.3z"/>
	<path id="svg_158" class="st13" d="M942.84,1083.7c-2.6,2.2-5.9,3.5-9.3,3.7c-5.7,0.3-5.2,7.7-1.5,5.4S942.84,1083.7,942.84,1083.7
		z"/>
	<path id="svg_159" class="st13" d="M944.24,1088.4c0,0-3.6,17.9-6.6,14.4"/>
	<path id="svg_160" class="st0" d="M241.04,1222.5c0,0,22.8,6.3,33.8-2.1s15.8-5.7,15.8-5.7s26.2-1.5,28.4-7.7s-10.1-28.7-10.1-28.7
		c-0.9-2-2.1-4.5-2.7-4.5l0.1-9.5l0,0l3.8-39.8c8.8-22.5,0.2-51.5,0.2-51.5l-1.6-7.2c-0.9-4.1-0.4-8.3,1.5-12l15.9-32
		c0.9-2.1,1.9-4.2,3-6.1c1-1.8,2.3-4.1,4-6.8c0.5-0.8,1-1.6,1.6-2.4c1.9-3,4.3-6.4,7.1-10.3c7-9.8,10.8-22,12.7-31l0.9,2.8l0,0h0.1
		l0,0h0.2l0,0h0.3h0.1l0.4,0.1h0.1l4.9,62.4c0.3,24.3,9.2,37.8,9.2,37.8l-1.2,53.7c1.7,12.9-2,30.2-3.7,37l-3.9,8.7
		c-3.1,1.5-5.2,4.5-5.7,7.9c-0.8,6.4-7.5,20.3-7.5,20.3c-2.6,3.3-8.3,12.3-8.3,12.3s-2.7,8.7-1,11.9s15.5,2.9,15.5,2.9
		c15.9,3.5,28-5,27.2-10.9s2.5-7.3,2.5-7.3c6.3-2,5.7-6.3,5.7-6.3c1.4-8.8-0.3-17.8-4.8-25.5l-1,2.3c-0.3-4.6,0.4-9.3,1.9-13.6
		l-0.6,0.4l-0.2,0.1h-0.1c1-8.8,10.2-25,10.2-25c16.9-29.7,10.8-69.9,10.8-69.9l-2.6-12.5l-0.1-4.7c-0.4-11.3,0.5-22.6,2.5-33.7
		c0.9-4.9,1.9-10.9,2.6-17.4c1.5-13.8,6.4-28.1,8.7-34.2l0.7-0.1h0.1c0.9-0.2,1.9-0.3,2.8-0.5h0.2c0,0,0.5-2.9,1-7.9
		c0.3-3.2,0.5-7.2,0.5-11.8c0.1-13.9-2.1-27.8-6.3-41.1l0.5-0.7c0,0,1.2-1.6,3.4-4.5l0,0c4.1-5.2,10.4-13,18.2-21.8
		c14-15.9,9.9-32,9.9-32s-10.1-37-14.6-59.2c-2.6-12.7-7.4-21.3-11.1-26.4c0.8-3.5,1.3-7.1,1.4-10.7c0.3-6.6,0.1-13.4-2.9-19.3
		c-3-5.9-9.3-10.6-15.8-9.8c-0.9,0.2-1.9,0.2-2.8,0c-0.8-0.3-1.4-0.9-1.9-1.6c-3.9-5.3-4.1-12.5-2.9-18.9s3.7-12.6,4.8-19.1
		c1.1-6.5,0.6-13.6-3.5-18.8c-4.8-6-13.3-7.7-19.5-12.2c-4.4-3.2-7.7-7.7-12.4-10.5s-9-1.7-14-0.7c-8.5,1.8-16.6,2.6-24.6,6.3
		c-8.1,3.7-15.4,9-21.4,15.6c-2.1,2.1-3.8,4.7-4.8,7.5c-2,6.6,1.9,13.6,1.1,20.5c-0.6,4.8-3.4,9.1-5.7,13.4c-2.3,4.3-4,9.5-2.2,14
		c2.8,7.1,11.9,8.6,18.6,12.4c0.9,0.4,1.6,1.1,2.2,1.9c1.6,2.9-1.7,5.8-3.8,8.4c-1.2,1.5-2.1,3.2-2.5,5.1
		c-5.6,2.3-9.7,7.2-10.9,13.1c-2.3,10.1,1.2,22.8,4.3,31.2c-3.3,18.7,1,26.1,4.2,28.9c3.2,2.8,5.2,6.7,5.6,10.9v0.4
		c0.2,3.4,0.6,6.8,1,10.2l0,0c-0.1-0.8-0.2-1.6-0.3-2c-2.6,4.8-7.6,17.2-10.4,37.9c-0.6,4.4-1.4,8.9-2.5,13.2
		c-2,7.7-2.7,15.7-2.1,23.6l0.5,6.7c-0.5,0-1-0.1-1.4-0.5l3.5,6.4v10.9c0,4.9-0.9,9.7-2.7,14.3c-0.3,0.7-0.5,1.3-0.8,2
		c-0.9,1.8-1.3,3.9-1.2,5.9c-7.5,11.6-24.9,76.4-24.9,76.4c-9.4,21.3,0.8,35,0.8,35s4.9,59.2,5.8,62.3s3,39.1,3,39.1l0,0
		c0,1,0,1.9,0,2.9c-0.5-0.2-1.1-0.4-1.7-0.5c-8.2-0.5-10.5,12.5-10.5,12.5l-16.9,16c0,0-7.7-1.3-19,7.2S241.04,1222.5,241.04,1222.5
		L241.04,1222.5z M409.24,880.4v-0.2l-0.5,0.3l0,0l-0.2,0.1l-0.1,0.1l0,0l-7.8-27.4c-2.1-7.3-2.3-15.1-0.6-22.5l6-26.3l0,0v-6.3
		l19.1,50.8C426.34,855.8,415.04,872.4,409.24,880.4L409.24,880.4z"/>
	<path id="svg_161" class="st26" d="M417.54,963.1c0,0-7.7,18.7-9.7,36.7c-0.7,6.5-1.6,12.3-2.5,17.2c-2,11-2.8,22.1-2.5,33.3
		l0.1,4.7l2.5,12.4c0,0,6,39.7-10.6,69c0,0-9.8,17.5-10.1,25.8l-6.6,2.6l-13.4-3.8c0,0,6.5-23.3,4.4-39.6l1.2-53
		c0,0-8.7-13.3-9-37.3l-5.1-65.9L417.54,963.1L417.54,963.1z"/>
	<path id="svg_162" class="st26" d="M356.24,953.7c0,0-1.6,25.7-14.4,43.4s-15.4,25.4-15.4,25.4l-15.6,31.6
		c-1.8,3.7-2.3,7.8-1.5,11.8l1.5,7.1c0,0,8.5,28.7-0.1,50.9l-4.1,42.9h-23.9c0,0-2-35.7-2.9-38.7s-5.7-61.5-5.7-61.5
		s-10-13.6-0.8-34.6c0,0,20.9-78.5,26.4-77.2S356.24,953.7,356.24,953.7L356.24,953.7z"/>
	<g id="svg_163" class="st20">
		<path id="svg_164" d="M308.54,1073.1l-1.5-7.1c-0.9-4-0.4-8.2,1.5-11.9l15.6-31.7c0,0,2.7-7.7,15.4-25.4
			c12.2-17,14.2-41.4,14.3-43.2l2.4-0.1c0,0-1.6,25.7-14.4,43.4s-15.4,25.4-15.4,25.4l-15.6,31.6c-1.8,3.7-2.3,7.8-1.5,11.8l1.5,7.1
			c0,0,8.5,28.7-0.1,50.9l-4.1,42.9h-2.4l4.1-42.9C316.94,1101.7,308.54,1073.1,308.54,1073.1z"/>
	</g>
	<path id="svg_165" class="st13" d="M382.54,1162.1c0.3-8.3,10.1-25.8,10.1-25.8c16.6-29.3,10.6-69,10.6-69l-2.6-12.4l-0.1-4.7
		c-0.4-11.1,0.5-22.3,2.5-33.3c0.9-4.9,1.8-10.7,2.5-17.2c1.9-17.3,9.1-35.3,9.6-36.6l2.5-0.1c0,0-7.7,18.7-9.7,36.7
		c-0.7,6.5-1.6,12.3-2.5,17.2c-2,11-2.8,22.1-2.5,33.3l0.1,4.7l2.5,12.4c0,0,6,39.7-10.6,69c0,0-9.8,17.5-10.1,25.8l-6.6,2.6
		l-1.4-0.4L382.54,1162.1L382.54,1162.1z"/>
	<path id="svg_166" class="st27" d="M374.84,1161.8c3.7,1.4,7.8,0.9,11-1.4c-2.2,6.4-2.5,13.3-0.9,19.9c2.7,10.9-25.4-8.8-25.4-8.8
		l6-13.7C365.54,1157.9,367.84,1162.3,374.84,1161.8z"/>
	<path id="svg_167" class="st13" d="M376.94,1162.4c3.1,0.6,6.4-0.1,8.9-2c-2.2,6.4-2.5,13.3-0.9,19.9c2.7,10.9-25.4-8.8-25.4-8.8
		l6-13.7c0,0,1.7,3.3,6.9,3.9C373.94,1162,375.44,1162.2,376.94,1162.4z"/>
	<polygon id="svg_168" class="st26" points="311.04,907.7 322.84,907.7 322.84,841.1 314.04,839.5 	"/>
	<polygon id="svg_169" class="st24" points="311.04,907.7 322.84,907.7 322.84,841.1 314.04,839.5 	"/>
	<path id="svg_170" class="st28" d="M368.14,1167c0,0,7.4-0.5,10.7,6.2l4.1,3.2l2-4.7c4.3,7.6,6,16.5,4.6,25.2c0,0,0.6,4.2-5.6,6.2
		c0,0-3.2,1.5-2.4,7.3s-11.2,14.2-26.7,10.7c0,0-13.6,0.3-15.3-2.9s1.1-11.6,1.1-11.6s5.6-8.9,8.1-12.1c0,0,6.6-13.7,7.4-20
		S364.24,1163.5,368.14,1167L368.14,1167z"/>
	<path id="svg_171" class="st27" d="M306.94,1172.6l0.1-9.4c0,0-13.5,3.9-24.4-0.5c0,0,0.9,9.4-0.6,10.7s5.1,13.4,5.1,13.4l7.4,7.7
		l12.6-4.6l3.4-10.8C310.44,1179.1,307.84,1172.6,306.94,1172.6L306.94,1172.6z"/>
	<path id="svg_172" class="st13" d="M306.94,1172.6l0.1-9.4c0,0-13.5,3.9-24.4-0.5c0,0,0.9,9.4-0.6,10.7s5.1,13.4,5.1,13.4l7.4,7.7
		l12.6-4.6l3.4-10.8C310.44,1179.1,307.84,1172.6,306.94,1172.6L306.94,1172.6z"/>
	<path id="svg_173" class="st28" d="M281.14,1169.2c0,0,7.2,0.8,6.3,10s0.4,0,0.4,0s7.6,3.1,10.4,7.4s7.6-3.8,8-6.2s3.4-3.3,3.4-3.3
		s12,22.3,9.9,28.4s-27.9,7.5-27.9,7.5s-4.7-2.6-15.5,5.6s-33.2,2-33.2,2s-18.3-7.6-7.2-16s18.6-7.1,18.6-7.1l16.5-15.9
		C270.84,1181.5,273.04,1168.7,281.14,1169.2L281.14,1169.2z"/>
	<path id="svg_174" class="st29" d="M366.94,643.1c4.6,2.8,7.8,7.3,12.1,10.4c6.2,4.4,14.4,6.1,19.2,12c4,5.1,4.5,12.1,3.4,18.5
		s-3.5,12.5-4.7,18.8s-0.9,13.4,2.9,18.6c0.4,0.7,1.1,1.3,1.8,1.6c0.9,0.2,1.9,0.2,2.8,0c6.5-0.8,12.7,3.8,15.6,9.7
		s3.1,12.6,2.8,19.1c-0.3,5.3-0.9,10.8-3.2,15.6c-4,8.2-12.3,13.2-20.5,17.1c-5.3,2.5-10.8,4.7-16.4,6.6c-3.8,1.3-7.9,2.5-11.9,1.8
		c-6.8-1.2-11.7-7.4-18.1-9.8c-5.3-2-11.2-1.3-16.9-0.8c-4.8,0.4-10.3,0.4-13.6-3.1c-4.3-4.5-2.3-11.8-0.2-17.6
		c-6.9-0.4-12.2-6.4-11.7-13.3c0.2-2.6,1.2-5.2,2.9-7.2c2.1-2.5,5.4-5.4,3.7-8.3c-0.5-0.8-1.3-1.5-2.2-1.9
		c-6.5-3.7-15.5-5.2-18.2-12.2c-1.8-4.5-0.1-9.6,2.2-13.8c2.2-4.3,5-8.5,5.6-13.2c0.8-6.8-3-13.7-1.1-20.2c1-2.8,2.6-5.3,4.7-7.5
		c5.9-6.5,13-11.7,21-15.4c7.9-3.6,15.8-4.4,24.1-6.2C358.04,641.4,362.24,640.3,366.94,643.1L366.94,643.1z"/>
	<path id="svg_175" class="st26" d="M322.74,743.8c0,0-19.1-1-22.8,15.3s7.9,39.7,7.9,39.7L322.74,743.8z"/>
	<path id="svg_176" class="st24" d="M322.74,743.8c0,0-19.1-1-22.8,15.3s7.9,39.7,7.9,39.7L322.74,743.8z"/>
	<path id="svg_177" class="st26" d="M310.54,792.4l7.3,5.7l33.8,1.5l21.1-14.5l21.5-36.9c-13.1-3.3-18.4-12.4-20.4-20.9
		c-1.3-5.7-1.4-11.7-0.4-17.5c0,0-34.4-17.8-30.2,10c0.6,3.4,0.7,6.9,0.3,10.3c-2,16.3-17.8,13.2-17.8,13.2l-6.1,9.4l-7,23
		L310.54,792.4L310.54,792.4z"/>
	<path id="svg_178" class="st13" d="M343.24,719.9c0.6,3.4,0.7,6.9,0.3,10.3c9.9,4.5,21.4,3.4,30.3-2.8c-1.3-5.7-1.4-11.7-0.4-17.5
		C373.44,709.9,339.04,692.1,343.24,719.9L343.24,719.9z"/>
	<circle id="svg_179" class="st26" cx="356.24" cy="701.2" r="30.5"/>
	<path id="svg_180" class="st14" d="M338.24,786.5c0.7,0,1.5,0.1,2.2,0.2c4,0.4,20.7,1.3,30.2-10.1c10.6-12.7,24.8-28.4,25.4-29.1
		l0,0l14.4,4.4c0,0-11.4-4.1-19,17.2c-3.4,9.2-0.4,19.5,7.4,25.3c2.8,2,6,3.4,9.4,4l0,0v9.3l0,0l-5.9,26c-1.7,7.3-1.5,15,0.6,22.3
		l9,31.8l0,0c-1.4,0.9-57.2,38.9-94.5,12.7l0,0c0.1-1.1,4.8-38.5,1.5-56.7c-0.8-4.7-1.4-9.4-1.7-14.1c0-0.1,0-0.2,0-0.4
		c-0.3-4.2-2.3-8.1-5.5-10.8c-3.4-3-7.9-11-3.4-32.1c1.1-5.2,2.8-10.3,5-15.2l12.5-28.3l0,0l11.5,0.2c-1,1.2-14.4,17.9-15.8,28.7
		C320.34,782.1,318.64,785.3,338.24,786.5L338.24,786.5z"/>
	<path id="svg_181" class="st26" d="M416.64,756.9c0,0,11.3,9.7,15.7,31.6c4.4,21.9,14.3,58.4,14.3,58.4s4,15.9-9.7,31.6
		c-13.7,15.7-22.8,28-22.8,28l-9,13.3c-1.5,2.3-3.8,3.9-6.5,4.6c-4.1,1.1-10.4,1.9-15.9-1.1c-4.1-2.3-5.8-7.3-4-11.7l2-4.6
		c0,0-18.5,11.7-20.1,5.2s21.5-12.9,21.5-12.9s19.1-3.2,23-12.3c0,0,20.5-26.4,18.9-35.5l-19.8-53.2c0,0-24.8-3.3-16.3-31.1
		S416.64,756.9,416.64,756.9L416.64,756.9z"/>
	<path id="svg_182" class="st22" d="M298.04,957.5c0,0,45.3,9.1,56,7.8l1.1,3.8c0,0,17.2,3.8,56.1-2.3c2.5-0.4,5.2-0.8,7.9-1.3
		l0.9-0.2c0,0,0.5-2.9,1-7.8c0.9-11.2,1.3-32.7-6.6-54.8l-6.5-20.1c0,0-40.4,24.2-67.2,22c-2.4-0.2-4.8-0.4-7.1-0.5
		c-5.5-0.2-14,0-19.5-4.4l-11.6,2v33c0,4.8-0.9,9.6-2.6,14.1c-0.3,0.7-0.5,1.3-0.8,2C297.94,952.9,297.64,955.2,298.04,957.5
		L298.04,957.5z"/>
	<path id="svg_183" class="st13" d="M355.14,958.9v10.3c0,0,19.8,4.4,64.9-3.8c0,0,0.5-2.9,1-7.8
		C407.14,959.8,369.04,965.1,355.14,958.9z"/>
	<path id="svg_184" class="st13" d="M298.04,957.5c0,0,45.3,9.1,56,7.8l1.1,3.8v-10.3c-5.2,2.1-42-6.7-55.4-10.1
		c-0.3,0.7-0.5,1.3-0.8,2C297.94,952.9,297.64,955.2,298.04,957.5L298.04,957.5z"/>
	<path id="svg_185" class="st22" d="M407.84,946.1l3.4,20.8c2.5-0.4,5.2-0.8,7.9-1.3c-1-6.1-3.3-20-2.7-22.3l-4.2-3.6L407.84,946.1
		L407.84,946.1z"/>
	<path id="svg_186" class="st13" d="M408.34,945.6l3.4,20.8c2.5-0.4,5.2-0.9,7.9-1.3c-1-6.1-3.3-20-2.7-22.3l-4.2-3.6L408.34,945.6
		L408.34,945.6z"/>
	<g id="svg_187" class="st30">
		<path id="svg_188" d="M338.24,904.6c-2.4-0.2-4.8-0.4-7.1-0.5c-5.3-0.2-13.5,0-19-4.1l1.9-0.3c5.6,4.4,14,4.2,19.5,4.4
			c2.4,0.1,4.8,0.3,7.1,0.5c0.8,0.1,1.6,0.1,2.4,0.1C341.54,904.8,339.84,904.7,338.24,904.6L338.24,904.6z"/>
		<path id="svg_189" d="M408.84,966.9c2.5-0.4,5.2-0.8,7.9-1.3l0.9-0.2c0,0,0.5-2.9,0.9-7.8c0.9-11.2,1.3-32.7-6.6-54.8l-6.2-19
			c1.3-0.7,2-1.2,2-1.2l6.5,20.1c7.9,22.1,7.5,43.7,6.6,54.8c-0.4,4.9-1,7.8-1,7.8l-0.9,0.2c-2.7,0.5-5.4,0.9-7.9,1.3
			c-18.2,2.9-31.6,3.6-40.8,3.5C383.34,970.1,396.14,969,408.84,966.9L408.84,966.9z"/>
		<path id="svg_190" d="M351.54,965.4v0.1h-1.3C350.74,965.4,351.24,965.4,351.54,965.4z"/>
	</g>
	<ellipse id="svg_191" class="st27" cx="413.54" cy="946.4" rx="1.7" ry="3.5"/>
	<path id="svg_192" class="st26" d="M304.34,875.2c2.8-20.5,7.6-32.7,10.2-37.5c0.1,0.6,0.4,2.8,0.5,3.4c0.5,3,0.1,6.8,0.2,10.6
		l-2.6,46.4l3.4,14.5c3.2,11.5-8.7,2.4-8.7,2.4c-2.5,5.4-7,4.8-7,4.8l-0.6-8.3c-0.6-7.8,0.1-15.7,2.1-23.3
		C302.94,883.9,303.84,879.5,304.34,875.2L304.34,875.2z"/>
	<path id="svg_193" class="st24" d="M304.34,875.2c2.8-20.5,7.6-32.7,10.2-37.5c0.1,0.6,0.4,2.8,0.5,3.4c0.5,3,0.1,6.8,0.2,10.6
		l-2.6,46.4l3.4,14.5c3.2,11.5-8.7,2.4-8.7,2.4c-2.5,5.4-7,4.8-7,4.8l-0.6-8.3c-0.6-7.8,0.1-15.7,2.1-23.3
		C302.94,883.9,303.84,879.5,304.34,875.2L304.34,875.2z"/>
	<path id="svg_194" class="st26" d="M419.14,900.2c-2.2,2.8-3.4,4.4-3.4,4.4l-9,13.3c-1.5,2.3-3.8,3.9-6.5,4.6
		c-4.1,1.1-10.4,1.9-15.9-1.1c-4.1-2.3-5.8-7.3-4-11.7l2-4.6c0,0-18.5,11.7-20.1,5.2s21.5-12.9,21.5-12.9s19.1-3.2,23-12.3
		c0,0,1.7-2.1,4-5.4"/>
	<path id="svg_195" class="st22" d="M407.84,922.4c0,0-21.9-2.1-28.9-14.7l-3.2,10.3c0,0,23,15.9,28.3,13.8L407.84,922.4
		L407.84,922.4z"/>
	<path id="svg_196" class="st13" d="M407.14,922.3c0,0-21.9-2.1-28.9-14.7l-3.2,10.3c0,0,23,15.9,28.2,13.8L407.14,922.3
		L407.14,922.3z"/>
	<path id="svg_197" class="st22" d="M308.14,916.5c0,0-7.7,2.7-9.2,1.2l3.5,6.3l6.5-5L308.14,916.5z"/>
	<path id="svg_198" class="st13" d="M308.14,916.5c0,0-7.7,2.7-9.2,1.2l3.5,6.3l6.5-5L308.14,916.5z"/>
	<polygon id="svg_199" class="st13" points="355.14,958.9 355.14,945.7 352.04,959.2 	"/>
	<path id="svg_200" class="st13" d="M386.24,685.1c-1.9,2.6-5.1,3.9-8.2,4.3s-6.4,0.1-9.5,0c-5-0.1-10.3,0.7-14.4,3.6
		c-2.6,1.9-4.6,4.5-6.6,7c-6.2,7.5-14.8,14.6-24.5,13.8c-1.7,0-3.4-0.7-4.5-1.9c-0.8-1.2-1.2-2.7-1.2-4.1
		c-0.4-6.2-0.2-12.5,0.6-18.7c0.4-3.8,1.3-7.6,2.8-11.1c1.7-3.6,4-6.8,6.8-9.7c3.3-3.9,7.3-7.1,11.8-9.5s9.8-3.1,14.8-1.9
		c5.8,1.6,10.4,6.2,15.9,8.5C376.34,668.2,393.14,675.3,386.24,685.1L386.24,685.1z"/>
	<path id="svg_201" class="st29" d="M386.24,683.9c-1.9,2.6-5.1,3.9-8.2,4.3s-6.4,0.1-9.5,0c-5-0.1-10.3,0.7-14.4,3.6
		c-2.6,1.9-4.6,4.5-6.6,7c-6.2,7.5-14.8,14.6-24.5,13.8c-1.7,0-3.4-0.7-4.5-1.9c-0.8-1.2-1.2-2.7-1.2-4.1
		c-0.4-6.2-0.2-12.5,0.6-18.7c0.4-3.8,1.3-7.6,2.8-11.1c1.7-3.6,4-6.8,6.8-9.7c3.3-3.9,7.3-7.1,11.8-9.5s9.8-3.1,14.8-1.9
		c5.8,1.6,10.4,6.1,15.9,8.5C376.34,667,393.14,674.1,386.24,683.9L386.24,683.9z"/>
	<polygon id="svg_202" class="st26" points="314.04,899.7 313.94,903.3 313.14,899.8 	"/>
	<polygon id="svg_203" class="st24" points="314.04,899.7 313.94,903.3 313.14,899.8 	"/>
	<g id="svg_204" class="st30">
		<path id="svg_205" d="M391.14,765.4c-8.5,27.9,16.2,31.1,16.2,31.1l19.8,53.2c1.6,9.1-18.9,35.5-18.9,35.5c-1.4,3.4-5,6-8.9,7.9
			c2.3-1.4,4.1-3.4,5.3-5.8c0,0,20.5-26.4,18.9-35.4l-19.8-53.4c0,0-24.7-3.3-16.2-31.1c2.8-9.3,7-13.5,11.2-15.1
			C395.84,754.7,393.14,758.7,391.14,765.4z"/>
	</g>
	<g id="svg_206" class="st20">
		<path id="svg_207" d="M391.54,790.7c1.2,1.4,2.5,2.7,4,3.8c2.8,2,6,3.4,9.4,4l0,0v1c-3.1-0.7-6-1.9-8.6-3.8
			C394.54,794.3,392.94,792.6,391.54,790.7z"/>
		<path id="svg_208" d="M314.84,830.5c0,0.1,0,0.2,0,0.3c0.3,4.8,0.9,9.5,1.7,14.2c3,17.2-0.9,51.5-1.5,56.2c-0.3-0.2-0.6-0.4-1-0.6
			l0,0c0.1-1.1,4.8-38.5,1.6-56.7c-0.8-4.7-1.4-9.4-1.7-14.1c0-0.1,0-0.2,0-0.4c-0.2-2.7-1.1-5.4-2.7-7.6
			C313.34,824.3,314.64,827.3,314.84,830.5L314.84,830.5z"/>
		<path id="svg_209" d="M333.24,744.3l-9.8-0.2l0,0l-12.5,28.3c-2.2,4.9-3.9,10-5,15.2c-3.6,17.1-1.4,25.6,1.4,29.8
			c-3.1-3.7-6.4-12.1-2.3-31c1.1-5.2,2.8-10.3,5-15.2l12.6-28.3l0,0l11.5,0.2C334.04,743.3,333.74,743.7,333.24,744.3L333.24,744.3z
			"/>
		<path id="svg_210" d="M406.94,751.9h0.2H406.94z"/>
		<path id="svg_211" d="M403.34,751.8l-9.8-3c-0.6,0.6-14.8,16.4-25.4,29.1c-9.5,11.4-26.2,10.5-30.2,10.1c-0.7-0.1-1.5-0.1-2.2-0.2
			c-10.9-0.7-15.2-2-16.7-4.8c2,2,6.6,3,15.8,3.6c0.7,0,1.5,0.1,2.2,0.2c4,0.4,20.7,1.3,30.2-10.1c10.6-12.7,24.8-28.4,25.4-29.1
			l0,0l14.3,4.3C405.74,751.6,404.54,751.6,403.34,751.8L403.34,751.8z"/>
	</g>
	<path id="svg_212" class="st13" d="M287.34,1183.7c0,0-13.8,3.8-16.5-2.2"/>
	<path id="svg_213" class="st13" d="M374.94,1180.9c0,0-16,4.1-19.7-2.3"/>
	<path id="svg_214" class="st0" d="M605.64,1171.9c0.2-2,0.6-4,0.9-6c1.6-8.6-0.8-16.9-2-20.3l0,0c-0.4-1-0.6-1.6-0.6-1.6
		c-6.4-1.7-31.5,17.7-40.6,25.1c-3.2,0-6.6,0.1-10.4,0.4c-1.6,0.1-3.3,0.2-4.9,0.1c-1.5,0-3.6,0-6,0c-8.5-6.8-34.8-27.4-41.3-25.6
		c0,0-0.3,0.6-0.6,1.6l0,0c-1.2,3.4-3.6,11.6-2,20.3c0.4,2,0.7,4,0.9,6c0.5,4.4,2.3,12.8,9,18.5c1.4,10.4,6.8,24.1,10.9,32.4
		c0.3,1.6,0.8,3.1,1.4,4.6c-1.7,6.6-3.7,15.1-3.1,18c0,0-8.9-2.2-9.8,8.5c0,0.1,0,0.2,0,0.3c-3.2,1.5-7.2,4.8-2.7,11.9
		c0.5,0.9,1.4,1.5,2.3,1.9c0.8,0.3,1.6,0.3,1.5-0.8l5.5,6.3c0,0,10.1,1.2,10.2-4.7l0.6,0.1c1.3,0.2,2.8,0.4,4.2,0.5l0.7,2.3
		c0,0-7.5-0.2-5.5,4.5c0,0,1.9,1.8,2.5,1.1c0,0-1,3,2.9,3c0,0,4.2,2.2,5.9,0.6s5.1-4,5.4-5c0.1-0.3,0.1-2.6,0.2-5.9h0.7
		c8.4,0.2,17.4-0.1,25.5-0.5h0.7c0,3.5,0,6.2,0.1,6.5c0.3,1,3.8,3.4,5.4,5s5.9-0.6,5.9-0.6c3.9,0,2.9-3,2.9-3
		c0.7,0.6,2.6-1.1,2.6-1.1c2.1-4.7-5.5-4.5-5.5-4.5l0.9-3l4.2-0.3l0.7-0.1c-0.4,6.3,10.2,5.1,10.2,5.1l5.6-6.3
		c-0.1,1.1,0.7,1.1,1.5,0.8c0.9-0.4,1.7-1,2.2-1.9c6.8-10.7-5.8-12.9-5.8-12.9c-0.4-0.1-0.8-0.2-1.2-0.2c0-0.2,0-0.4,0-0.5l0,0
		c0.2-1.4,0.2-2.8,0.1-4.2c-0.5-1.9-3.6-5-7.5-5.5c-2.6-0.3-2.6-12.1-2.3-20.2c0.3-1.5,0.4-3.1,0.4-4.6c0.1-2.5-0.3-5-1-7.4
		c5-8.5,9-17.4,9.5-20C603.34,1184.7,605.24,1176.3,605.64,1171.9L605.64,1171.9z"/>
	<path id="svg_215" class="st14" d="M596.04,1253L596.04,1253c-0.4,5.5-1.5,14.4-1.5,14.4s-4.5,0.5-11.3,1.2l-4.7,0.4
		c-3.6,0.3-7.6,0.6-11.8,0.8c-7.8,0.4-16.5,0.7-24.6,0.5c-4.1-0.1-8-0.3-11.7-0.7c-1.6-0.2-3.2-0.3-4.7-0.6c-9.3-1.4-16-4-16.6-8.7
		c-0.3-2-0.4-4-0.2-6c0.9-10.5,9.4-8.4,9.4-8.4c-0.5-2.9,1.5-11.9,3.2-18.4c1.1-4.1,2-7.2,2-7.2l60.1-4h0.2c1.6,0,2.9,1.3,2.9,2.9
		c0,0.1,0,0.1,0,0.2c-0.4,7.2-0.9,23.7,2.1,24.1c3.8,0.5,6.8,3.5,7.2,5.3C596.24,1250.2,596.14,1251.6,596.04,1253L596.04,1253z"/>
	<path id="svg_216" class="st14" d="M544.94,1173.8c0,0-22.7,27.3-33.6,19.7c-0.3-0.2-0.5-0.4-0.8-0.5c-7.3-5.6-9.3-14.5-9.8-19.1
		c-0.2-2-0.5-3.9-0.9-5.9c-1.5-8.5,0.8-16.6,2-19.9l0,0c0.4-1,0.6-1.6,0.6-1.6C510.14,1144.4,544.94,1173.8,544.94,1173.8z"/>
	<path id="svg_217" class="st14" d="M532.74,1176.3c0,0-7.1,5-17.2,13.2c-1.6,1.3-3.2,2.4-5,3.4c-7.3-5.6-9.3-14.5-9.8-19.1
		c-0.2-2-0.5-3.9-0.9-5.9c-1.5-8.5,0.8-16.6,2-19.9l0,0C516.04,1149.1,532.74,1176.3,532.74,1176.3z"/>
	<path id="svg_218" class="st31" d="M532.74,1176.3c0,0-7.1,5-17.2,13.2c-1.6,1.3-3.2,2.4-5,3.4c-7.3-5.6-9.3-14.5-9.8-19.1
		c-0.2-2-0.5-3.9-0.9-5.9c-1.5-8.5,0.8-16.6,2-19.9l0,0C516.04,1149.1,532.74,1176.3,532.74,1176.3z"/>
	<path id="svg_219" class="st13" d="M524.94,1173.7c0,0-3.8,2.7-9.2,7.1c-0.8,0.7-1.7,1.3-2.6,1.8c-3.9-3-5-7.8-5.2-10.2
		c-0.1-1.1-0.3-2.1-0.5-3.2c-0.5-3.6-0.1-7.2,1.1-10.6l0,0C516.04,1159.1,524.94,1173.7,524.94,1173.7L524.94,1173.7z"/>
	<path id="svg_220" class="st14" d="M559.64,1173.8c0,0,22.7,27.3,33.6,19.7c0.3-0.2,0.5-0.4,0.8-0.5c7.3-5.6,9.3-14.5,9.8-19.1
		c0.2-2,0.5-3.9,0.9-5.9c1.5-8.5-0.8-16.6-2-19.9l0,0c-0.4-1-0.6-1.6-0.6-1.6C594.44,1144.4,559.64,1173.8,559.64,1173.8z"/>
	<path id="svg_221" class="st14" d="M571.84,1176.3c0,0,7.2,5,17.2,13.2c1.6,1.3,3.2,2.4,5,3.4c7.3-5.6,9.3-14.5,9.8-19.1
		c0.2-2,0.5-3.9,0.9-5.9c1.5-8.5-0.8-16.6-2-19.9l0,0C588.54,1149.1,571.84,1176.3,571.84,1176.3z"/>
	<path id="svg_222" class="st31" d="M571.84,1176.3c0,0,7.2,5,17.2,13.2c1.6,1.3,3.2,2.4,5,3.4c7.3-5.6,9.3-14.5,9.8-19.1
		c0.2-2,0.5-3.9,0.9-5.9c1.5-8.5-0.8-16.6-2-19.9l0,0C588.54,1149.1,571.84,1176.3,571.84,1176.3z"/>
	<path id="svg_223" class="st13" d="M579.64,1173.6c0,0,3.8,2.7,9.1,7c0.8,0.7,1.7,1.3,2.6,1.8c3.9-3,4.9-7.7,5.2-10.1
		c0.1-1,0.3-2.1,0.5-3.1c0.5-3.6,0.2-7.2-1-10.6l0,0C588.54,1159.2,579.64,1173.6,579.64,1173.6L579.64,1173.6z"/>
	<path id="svg_224" class="st13" d="M583.64,1216.3c-2.9,4.5-5.9,8.6-8.7,11.1c-9,8-47.9,4.8-50.4,4.4c-0.5-0.1-1.6-1.7-3-4.2
		c1.1-4.1,2-7.2,2-7.2L583.64,1216.3L583.64,1216.3z"/>
	<path id="svg_225" class="st14" d="M552.84,1171.5c-1.6,0.1-3.2,0.2-4.8,0.1c-8.1-0.1-35.4,0.2-38.5,11.3
		c-3.6,13,12.4,47.8,14.9,48.2s41.4,3.6,50.4-4.4s20.8-33,20.2-35.3C595.14,1191.5,606.34,1167.8,552.84,1171.5L552.84,1171.5z"/>
	<path id="svg_226" class="st13" d="M552.04,1192.6c0,0-20-3.1-29.4,16.6c-3.8,7.8-3.2,17,1.8,24.2c3.1,4.4,7.7,7.7,14.1,5
		C552.64,1232.6,552.04,1192.6,552.04,1192.6L552.04,1192.6z"/>
	<path id="svg_227" class="st13" d="M551.44,1191.3c0,0-20-3.1-29.4,16.6c-3.8,7.8-3.2,17,1.8,24.2c3.1,4.4,7.7,7.7,14.1,5
		C552.04,1231.3,551.44,1191.3,551.44,1191.3L551.44,1191.3z"/>
	<path id="svg_228" class="st14" d="M551.44,1192c0,0-20-3.1-29.4,16.6c-3.8,7.8-3.2,17,1.8,24.2c3.1,4.4,7.7,7.7,14.1,5
		C552.04,1231.9,551.44,1192,551.44,1192L551.44,1192z"/>
	<path id="svg_229" class="st31" d="M551.44,1192c0,0-20-3.1-29.4,16.6c-3.8,7.8-3.2,17,1.8,24.2c3.1,4.4,7.7,7.7,14.1,5
		C552.04,1231.9,551.44,1192,551.44,1192L551.44,1192z"/>
	<path id="svg_230" class="st32" d="M529.84,1209.2c0,0-2.7,2.5-1.7,3.2S529.84,1209.2,529.84,1209.2z"/>
	<path id="svg_231" class="st32" d="M532.74,1212.4c0,0-1.5,3.3-0.4,3.7s1.7-2.4,1.7-2.4L532.74,1212.4L532.74,1212.4z"/>
	<path id="svg_232" class="st32" d="M526.14,1217.4c0,0-1.5,3.9,0,3.9S526.14,1217.4,526.14,1217.4z"/>
	<path id="svg_233" class="st33" d="M524.34,1227.8c0,0,2.9,7.5,10.5,6.9"/>
	<path id="svg_234" class="st33" d="M531.14,1230c0,0,3,2.9,6.3,0.8"/>
	<path id="svg_235" class="st13" d="M554.54,1192.6c0,0,20-3.1,29.4,16.6c3.8,7.8,3.2,17-1.8,24.2c-3.1,4.4-7.7,7.7-14.1,5
		C553.94,1232.6,554.54,1192.6,554.54,1192.6L554.54,1192.6z"/>
	<path id="svg_236" class="st13" d="M555.14,1191.3c0,0,20-3.1,29.4,16.6c3.8,7.8,3.2,17-1.8,24.2c-3.1,4.4-7.7,7.7-14.1,5
		C554.54,1231.3,555.14,1191.3,555.14,1191.3L555.14,1191.3z"/>
	<path id="svg_237" class="st14" d="M555.14,1192c0,0,20-3.1,29.4,16.6c3.8,7.8,3.2,17-1.8,24.2c-3.1,4.4-7.7,7.7-14.1,5
		C554.54,1231.9,555.14,1192,555.14,1192L555.14,1192z"/>
	<path id="svg_238" class="st31" d="M555.14,1192c0,0,20-3.1,29.4,16.6c3.8,7.8,3.2,17-1.8,24.2c-3.1,4.4-7.7,7.7-14.1,5
		C554.54,1231.9,555.14,1192,555.14,1192L555.14,1192z"/>
	<path id="svg_239" class="st32" d="M576.74,1209.2c0,0,2.7,2.5,1.7,3.2S576.74,1209.2,576.74,1209.2z"/>
	<path id="svg_240" class="st32" d="M573.84,1212.4c0,0,1.5,3.3,0.4,3.7s-1.7-2.4-1.7-2.4L573.84,1212.4L573.84,1212.4z"/>
	<path id="svg_241" class="st32" d="M580.44,1217.4c0,0,1.5,3.9,0,3.9S580.44,1217.4,580.44,1217.4z"/>
	<path id="svg_242" class="st33" d="M582.24,1227.8c0,0-2.9,7.5-10.5,6.9"/>
	<path id="svg_243" class="st33" d="M575.34,1230c0,0-3,2.9-6.3,0.8"/>
	<path id="svg_244" class="st32" d="M543.74,1249c0.5-0.1,10.5-4.4,20.8,0H543.74z"/>
	<path id="svg_245" class="st13" d="M525.74,1269.1c-9.3-1.4-16-4-16.6-8.7c-0.3-2-0.4-4-0.2-6c1.1-0.6,2.3-1,3.6-1.3
		c1.7-0.5,3.8-0.2,8.2,1.1s4.1,6.5,5,13.2C525.74,1267.9,525.84,1268.5,525.74,1269.1L525.74,1269.1z"/>
	<path id="svg_246" class="st14" d="M511.84,1253.7c0,0-12.1,2.2-5.6,12.7c0.5,0.8,1.3,1.5,2.2,1.8c0.8,0.3,1.5,0.3,1.4-0.8l5.4,6.1
		c0,0,10.7,1.3,9.8-5.5s-0.6-12-5-13.2S513.54,1253.2,511.84,1253.7L511.84,1253.7z"/>
	<path id="svg_247" class="st33" d="M514.74,1260.7c0,0,2.6,5.9,6.1,0.9"/>
	<path id="svg_248" class="st33" d="M508.84,1263.1c0,0,1.3,5.6,6.4,1.4"/>
	<path id="svg_249" class="st13" d="M596.04,1253L596.04,1253c-0.4,5.5-1.5,14.4-1.5,14.4s-4.5,0.5-11.3,1.2c0-0.4,0-0.8,0-1.2
		c0.9-6.8,0.6-12,5-13.2C592.34,1253.1,594.44,1252.7,596.04,1253L596.04,1253z"/>
	<path id="svg_250" class="st14" d="M597.14,1253.7c0,0,12.1,2.2,5.6,12.7c-0.5,0.8-1.3,1.5-2.2,1.8c-0.8,0.3-1.5,0.3-1.4-0.8
		l-5.3,6.1c0,0-10.7,1.3-9.8-5.5s0.6-12,5-13.2S595.44,1253.2,597.14,1253.7L597.14,1253.7z"/>
	<path id="svg_251" class="st33" d="M594.24,1260.7c0,0-2.6,5.9-6.1,0.9"/>
	<path id="svg_252" class="st33" d="M600.14,1263.1c0,0-1.3,5.6-6.4,1.4"/>
	<path id="svg_253" class="st13" d="M542.04,1270.3c-4.1-0.1-8-0.3-11.7-0.7l-3.6-12.2c-0.2-0.7-0.3-1.5-0.3-2.2
		c0.1-4.3,3.7-7.7,8-7.5c4.1,0.1,7.4,3.4,7.5,7.5C542.04,1259.9,542.14,1265.9,542.04,1270.3L542.04,1270.3z"/>
	<path id="svg_254" class="st14" d="M526.14,1257.4l4.3,14.4c0,0-7.3-0.2-5.3,4.4c0,0,1.8,1.7,2.5,1.1c0,0-1,3,2.8,3
		c0,0,4.1,2.2,5.7,0.6s4.9-3.9,5.2-4.9c0.2-0.6,0.1-12.7,0.1-21c0-4.3-3.5-7.7-7.8-7.7l0,0c-4.3,0-7.8,3.5-7.8,7.8
		C525.84,1255.9,525.94,1256.6,526.14,1257.4L526.14,1257.4z"/>
	<path id="svg_255" class="st33" d="M531.94,1275.5c0,0-3.2,3-1.5,4.8"/>
	<path id="svg_256" class="st33" d="M530.54,1273.6c0,0-2.9,1-2.9,3.7"/>
	<path id="svg_257" class="st13" d="M582.34,1255.2c0,0.8-0.1,1.5-0.3,2.2l-3.4,11.6c-3.6,0.3-7.6,0.6-11.8,0.8
		c0-4.3,0-10.1,0.1-14.7c0-4.3,3.5-7.8,7.8-7.7S582.34,1250.9,582.34,1255.2L582.34,1255.2L582.34,1255.2L582.34,1255.2z"/>
	<path id="svg_258" class="st14" d="M582.54,1257.4l-4.3,14.4c0,0,7.3-0.2,5.3,4.4c0,0-1.8,1.7-2.5,1.1c0,0,0.9,3-2.8,3
		c0,0-4.1,2.2-5.7,0.6s-4.9-3.9-5.2-4.9c-0.2-0.6-0.1-12.7-0.1-21c0-4.3,3.5-7.7,7.8-7.7l0,0c4.3,0,7.8,3.5,7.8,7.8
		C582.94,1255.9,582.84,1256.6,582.54,1257.4L582.54,1257.4z"/>
	<path id="svg_259" class="st33" d="M576.84,1275.5c0,0,3.2,3,1.5,4.8"/>
	<path id="svg_260" class="st33" d="M578.24,1273.6c0,0,2.9,1,2.9,3.7"/>
	<path id="svg_261" class="st13" d="M551.44,1188.8c0,0-14.8-0.5-15.3,11s23.1,6.6,23.1,6.6s9.9-1.3,8.2-8.3
		S562.14,1189.5,551.44,1188.8L551.44,1188.8z"/>
	<path id="svg_262" class="st13" d="M551.44,1187.6c0,0-14.8-0.5-15.3,11s23.1,6.6,23.1,6.6s9.9-1.3,8.2-8.3
		S562.14,1188.2,551.44,1187.6L551.44,1187.6z"/>
	<path id="svg_263" class="st32" d="M551.44,1188.2c0,0-14.8-0.5-15.3,11s23.1,6.6,23.1,6.6s9.9-1.3,8.2-8.3
		S562.14,1188.8,551.44,1188.2L551.44,1188.2z"/>
	<path id="svg_264" class="st13" d="M518.34,1246c0,0,5,1.8,6,5.2"/>
	<path id="svg_265" class="st13" d="M588.84,1243.5c0,0-3.5,1.5-3.3,7.7"/>
	
		<ellipse id="svg_266" transform="matrix(0.867 -0.4983 0.4983 0.867 -564.6146 428.5164)" class="st14" cx="520.46" cy="1271.99" rx="2.3" ry="3.8"/>
	
		<ellipse id="svg_267" transform="matrix(0.5 -0.866 0.866 0.5 -803.1885 1145.8745)" class="st14" cx="590.78" cy="1268.53" rx="3.8" ry="2.3"/>
	
		<ellipse id="svg_268" transform="matrix(0.867 -0.4983 0.4983 0.867 -564.6146 428.5164)" class="st31" cx="520.46" cy="1271.99" rx="2.3" ry="3.8"/>
	
		<ellipse id="svg_269" transform="matrix(0.5 -0.866 0.866 0.5 -803.1885 1145.8745)" class="st31" cx="590.78" cy="1268.53" rx="3.8" ry="2.3"/>
	<ellipse id="svg_270" class="st9" cx="214.34" cy="1142.3" rx="26.9" ry="4.5"/>
	<ellipse id="svg_271" class="st9" cx="108.24" cy="1206.8" rx="26.9" ry="4.5"/>
	<ellipse id="svg_272" class="st14" cx="80.24" cy="1149.1" rx="40.2" ry="6.8"/>
	<path id="svg_273" class="st14" d="M63.54,1137.9c-1.8-1.5-3.2-3.5-3.8-5.8c-0.5-2.3,0.5-5,2.7-5.9c2.5-0.9,5.1,0.8,7.1,2.5
		s4.3,3.7,6.9,3.3c-2.7-2.5-4-6.2-3.2-9.8c0.1-0.7,0.4-1.4,0.9-2c1.4-1.5,3.8-0.8,5.5,0.3c5.2,3.7,6.7,10.7,6.7,17.1
		c0.5-2.3,0.1-4.7,0.1-7s0.7-5,2.6-6.2c1.2-0.7,2.6-1,4-1c2.3-0.1,4.9,0.2,6.5,1.9c2,2.1,1.5,5.7-0.3,8c-1.7,2.3-4.4,3.8-6.8,5.4
		c-1.9,1.2-3.6,2.7-4.8,4.6c-0.1,0.3-0.3,0.5-0.4,0.8h-14.6C69.34,1142.5,66.34,1140.4,63.54,1137.9L63.54,1137.9z"/>
	<ellipse id="svg_274" class="st9" cx="1051.54" cy="1180.3" rx="26.9" ry="4.5"/>
	<path id="svg_275" class="st34" d="M1033.54,1159.2c0,0,15.4-0.5,20-3.8s23.6-7.2,24.8-1.9s23.1,26.3,5.7,26.4s-40.3-2.7-44.9-5.5
		S1033.54,1159.2,1033.54,1159.2z"/>
	<path id="svg_276" class="st35" d="M1084.34,1178.1c-17.3,0.1-40.3-2.7-44.9-5.5c-3.5-2.1-4.9-9.8-5.4-13.4h-0.5
		c0,0,1,12.4,5.6,15.2s27.6,5.7,44.9,5.5c5,0,6.7-1.8,6.6-4.5C1089.94,1177.1,1088.04,1178.1,1084.34,1178.1L1084.34,1178.1z"/>
	<path id="svg_287" class="st36" d="M338.64,802.1l7.5-7.7c0-0.1,0.1-0.1,0.2,0l6.4,8.6v0.1l-7.4,7.6c0,0.1-0.1,0.1-0.2,0
		L338.64,802.1C338.54,802.2,338.54,802.1,338.64,802.1L338.64,802.1z"/>
	<path id="svg_288" class="st36" d="M944.34,790.2l7.6-7.7c0-0.1,0.1-0.1,0.2,0l6.3,8.7v0.1l-7.5,7.5c0,0.1-0.1,0.1-0.2,0
		L944.34,790.2C944.24,790.3,944.24,790.2,944.34,790.2L944.34,790.2z"/>
	<path id="svg_289" class="st37" d="M851.4,107.65l16.02-18.77c0-0.23,0.23-0.23,0.46,0l15.79,18.77v0.23l-15.79,18.31
		c0,0.23-0.23,0.23-0.46,0L851.4,107.65C851.18,107.88,851.18,107.65,851.4,107.65L851.4,107.65z"/>
	<path id="svg_410" class="st37" d="M109.18,193.23l16.02-18.77c0-0.23,0.23-0.23,0.46,0l15.79,18.77v0.23l-15.79,18.31
		c0,0.23-0.23,0.23-0.46,0L109.18,193.23C108.95,193.46,108.95,193.23,109.18,193.23z"/>
</g>
</svg>
